<svg width="185" height="130" viewBox="0 0 185 130" fill="none" xmlns="http://www.w3.org/2000/svg">
<g clip-path="url(#clip0_3_726)">
<path d="M162.312 109.791H157.757V121.172H162.312V114.019H178.894V121.172H183.452V109.843H162.312V109.791ZM86.5 106.827H102.75C105.219 106.209 107.012 104.589 107.519 102.766H81.9454V114.046H103.082V116.986H86.7149C84.3008 117.802 82.5274 119.197 82.0274 120.995L81.9454 121.172H107.637V109.972H86.5V106.824V106.827ZM126.672 116.861V102.763H122.101V121.172H142.98V120.998C145.257 120.158 146.898 118.694 147.375 116.972L126.672 116.858V116.861ZM161.722 106.827H179.359C181.823 106.015 183.64 104.505 184.14 102.673H156.945C157.437 104.505 159.265 106.015 161.722 106.827ZM45.9144 106.827H63.5471C66.0119 106.015 67.8127 104.505 68.3283 102.673H41.1332C41.6293 104.505 43.4496 106.015 45.9144 106.827ZM45.9144 121.137H63.5471C66.0119 120.332 67.8127 118.801 68.3283 116.976H41.1332C41.6293 118.798 43.4496 120.332 45.9144 121.137ZM0.0749512 102.808C0.606197 104.616 2.40306 106.133 4.84444 106.938H12.2663L12.6452 107.084V121.168H17.274V107.084L17.6881 106.938H25.106C27.5396 106.133 29.3442 104.616 29.8638 102.808V102.763H0.0749512V102.808ZM45.9144 114.043H63.5471C66.0119 113.248 67.8127 111.707 68.3283 109.899H41.1332C41.6293 111.707 43.4496 113.248 45.9144 114.043Z" fill="#B7B8C2"/>
</g>
<path d="M92.4172 76.0866L100.912 27.2503C109.01 27.2503 111.564 28.1598 111.935 31.8622C111.935 31.8622 117.371 29.7931 120.111 25.5866C109.417 20.5238 98.676 20.2964 98.676 20.2964L92.4061 28.0991H92.4209L86.1511 20.2964C86.1511 20.2964 75.4059 20.5238 64.7163 25.5866C67.4564 29.7893 72.892 31.8622 72.892 31.8622C73.2628 28.156 75.8137 27.2503 83.8596 27.2427L92.4246 76.0866H92.4172Z" fill="#B7B8C2"/>
<path d="M92.4135 18.0416C101.056 17.9733 110.952 19.4096 121.078 23.9192C122.432 21.4294 122.777 20.3305 122.777 20.3305C111.705 15.8512 101.338 14.3202 92.4097 14.2823C83.4851 14.3202 73.1181 15.8512 62.0466 20.3305C62.0466 20.3305 62.5398 21.6871 63.7485 23.9192C73.8745 19.4096 83.7706 17.9733 92.4135 18.0416Z" fill="#B7B8C2"/>
<defs>
<clipPath id="clip0_3_726">
<rect width="184.065" height="18.499" fill="white" transform="translate(0.0749512 102.669)"/>
</clipPath>
</defs>
</svg>
