<svg width="152" height="130" viewBox="0 0 152 130" fill="none" xmlns="http://www.w3.org/2000/svg">
<path fill-rule="evenodd" clip-rule="evenodd" d="M36.7903 25.729C36.7903 25.729 36.2145 32.8316 36.76 40.8221C37.9118 57.6458 40.8216 65.9673 44.3679 68.4653C51.7181 73.6268 65.4334 72.9647 76.2086 72.9647V74.8908C59.7957 74.334 47.4898 74.9209 41.9431 68.3299C38.5938 64.3422 36.6236 51.0849 36.2448 40.5663C35.9417 31.8987 36.6085 25.6838 36.6085 25.6838C36.6085 25.6838 36.6388 25.6838 36.7146 25.7139C36.7449 25.7139 36.7752 25.7139 36.8055 25.729H36.7903Z" fill="#B7B8C2"/>
<path fill-rule="evenodd" clip-rule="evenodd" d="M44.8072 18.4758C44.5496 18.7166 44.3223 18.9724 44.095 19.2734C40.9882 23.3965 41.3519 29.5813 41.2913 34.4568C41.2155 40.6716 41.5034 46.9918 42.3673 53.1615C42.8371 56.5021 43.1857 60.7156 44.8072 63.8907L43.2311 64.4926C43.2311 64.4926 39.2605 56.8181 39.2605 34.6374C39.2605 18.7467 44.7921 18.4758 44.7921 18.4758H44.8072Z" fill="#B7B8C2"/>
<path fill-rule="evenodd" clip-rule="evenodd" d="M44.7164 63.6951C44.58 63.3941 43.9434 61.4228 43.61 60.0534C43.5343 59.7224 42.9281 56.4871 42.822 55.8851C42.4431 54.1546 41.9884 51.2353 41.6702 47.8947C41.0337 41.2585 40.6396 33.7495 40.6396 31.3719C40.5487 31.703 40.5032 35.3597 40.4729 35.8563C40.4426 36.1572 40.4426 38.1285 40.4426 38.5047C40.4426 48.0301 42.5037 62.7169 44.7315 63.6951H44.7164Z" fill="#B7B8C2"/>
<path fill-rule="evenodd" clip-rule="evenodd" d="M42.4582 18.7166C39.6091 22.7194 39.2605 27.7905 39.2605 35.8864C39.2605 40.2503 39.8515 54.3804 42.1854 61.799C42.2764 62.1 43.0493 63.4995 43.3221 63.2286C43.5948 62.9728 43.4281 62.431 43.2463 62.0097C43.0644 61.5733 40.5335 50.3926 40.5335 35.9165C40.5335 34.6223 40.4274 26.2256 41.367 23.848C42.4582 21.1092 43.2917 20.2515 44.5193 18.7617C46.1712 16.7303 50.9754 15.6318 50.9754 15.6318C50.9754 15.6318 51.2027 15.5866 51.2785 15.6167C51.4906 15.6769 51.5664 15.7973 51.5664 15.7973C51.5664 15.7973 52.0362 15.075 53.5517 14.5182C55.3249 13.8711 56.9313 13.7357 56.9313 13.7357L58.765 14.8041C58.765 14.8041 58.7954 14.774 58.856 14.7439C59.2955 14.5483 66.5396 13.7809 76.1934 13.9012V12.6372C57.9164 12.6372 46.4137 13.1488 42.4431 18.7166H42.4582Z" fill="#B7B8C2"/>
<path fill-rule="evenodd" clip-rule="evenodd" d="M40.5335 32.9069C40.5335 32.9069 40.3971 29.0395 40.6851 26.1503C40.776 25.1571 40.9275 24.2844 41.1397 23.7276C41.7004 22.2679 42.337 21.1845 42.9128 20.402C43.2159 19.9957 43.5039 19.6646 43.7464 19.4088C44.2616 18.8821 44.5951 18.6714 44.5951 18.6714C44.5951 18.6714 42.4733 20.8685 41.6701 24.0285C41.6247 24.2091 41.5792 24.4047 41.5489 24.6004C41.17 26.6318 40.7002 30.6045 40.5941 32.3049C40.5638 32.5307 40.5638 32.7564 40.5487 32.8467C40.5487 32.8918 40.5183 32.9069 40.5487 32.9069H40.5335Z" fill="#B7B8C2"/>
<path d="M76.2085 72.3477C56.3706 72.3477 46.6259 72.5885 42.8371 63.6199C40.0334 56.9536 39.2605 40.6566 39.2605 35.9014C39.2605 15.1051 42.1248 12.6523 76.2085 12.6523" fill="#B7B8C2"/>
<path d="M76.2085 72.3477C56.3706 72.3477 46.6259 72.5885 42.8371 63.6199C40.0334 56.9536 39.2605 40.6566 39.2605 35.9014C39.2605 15.1051 42.1248 12.6523 76.2085 12.6523" stroke="#B7B8C2" stroke-width="0.203489" stroke-miterlimit="22.93"/>
<path fill-rule="evenodd" clip-rule="evenodd" d="M115.627 25.729C115.627 25.729 114.687 16.6701 107.625 14.2624C98.1379 11.0271 86.9686 11.3882 76.1934 11.3882V10.2596C79.6487 10.2596 100.138 10.3048 108.292 13.7056C115.566 16.7303 115.794 25.6838 115.794 25.6838C115.794 25.6838 115.794 25.6838 115.612 25.729H115.627Z" fill="#B7B8C2"/>
<path fill-rule="evenodd" clip-rule="evenodd" d="M115.627 25.729C115.627 25.729 116.203 32.8316 115.657 40.8221C114.505 57.6458 111.596 65.9673 108.049 68.4653C100.699 73.6268 86.9837 72.9647 76.2085 72.9647V74.8908C92.6214 74.334 104.927 74.9209 110.474 68.3299C113.823 64.3422 115.793 51.0849 116.172 40.5663C116.491 31.8987 115.809 25.6838 115.809 25.6838C115.809 25.6838 115.778 25.6838 115.718 25.7139C115.687 25.7139 115.657 25.7139 115.627 25.729Z" fill="#B7B8C2"/>
<path fill-rule="evenodd" clip-rule="evenodd" d="M113.141 34.6374C113.141 56.8181 109.171 64.4926 109.171 64.4926L107.595 63.8907C109.231 60.7156 109.58 56.5021 110.035 53.1615C110.899 46.9918 111.186 40.6716 111.111 34.4568C111.05 29.5813 111.414 23.3965 108.307 19.2734C108.095 18.9875 107.852 18.7166 107.595 18.4758C107.595 18.4758 113.141 18.7467 113.141 34.6374Z" fill="#B7B8C2"/>
<path fill-rule="evenodd" clip-rule="evenodd" d="M109.959 18.7166C112.808 22.7194 113.157 27.7905 113.157 35.8864C113.157 40.2503 112.55 54.3804 110.232 61.799C110.141 62.1 109.368 63.4995 109.095 63.2286C108.837 62.9728 108.989 62.431 109.171 62.0097C109.353 61.5733 111.884 50.3926 111.884 35.9165C111.884 34.6223 111.99 26.2256 111.05 23.848C109.959 21.1092 109.125 20.2515 107.898 18.7617C106.246 16.7303 101.442 15.6318 101.442 15.6318C101.442 15.6318 101.214 15.5866 101.123 15.6167C100.911 15.6769 100.835 15.7973 100.835 15.7973C100.835 15.7973 100.366 15.075 98.8502 14.5182C97.077 13.8711 95.4554 13.7357 95.4554 13.7357L93.6217 14.8041C93.6217 14.8041 93.5914 14.774 93.5307 14.7439C93.0912 14.5483 85.8471 13.7809 76.1934 13.9012V12.6372C94.4704 12.6372 105.973 13.1488 109.944 18.7166H109.959Z" fill="#B7B8C2"/>
<path fill-rule="evenodd" clip-rule="evenodd" d="M111.884 32.9069C111.884 32.9069 112.02 29.0395 111.732 26.1503C111.641 25.1571 111.49 24.2844 111.277 23.7276C110.717 22.2679 110.08 21.1845 109.504 20.402C109.201 19.9957 108.913 19.6646 108.671 19.4088C108.155 18.8821 107.822 18.6714 107.822 18.6714C107.822 18.6714 109.944 20.8685 110.747 24.0285C110.792 24.2091 110.838 24.4047 110.868 24.6004C111.262 26.6318 111.717 30.6045 111.823 32.3049C111.853 32.5307 111.853 32.7564 111.868 32.8467C111.868 32.8918 111.899 32.9069 111.868 32.9069H111.884Z" fill="#B7B8C2"/>
<path d="M76.2085 72.3477C96.0465 72.3477 105.791 72.5885 109.58 63.6199C112.384 56.9536 113.157 40.6566 113.157 35.9014C113.157 15.1051 110.292 12.6523 76.2085 12.6523" fill="#B7B8C2"/>
<path d="M76.2085 72.3477C96.0465 72.3477 105.791 72.5885 109.58 63.6199C112.384 56.9536 113.157 40.6566 113.157 35.9014C113.157 15.1051 110.292 12.6523 76.2085 12.6523" stroke="#B7B8C2" stroke-width="0.203489" stroke-miterlimit="22.93"/>
<path d="M76.2085 12.6372C42.14 12.6372 39.2605 15.075 39.2605 35.8864C39.2605 40.6415 40.0334 56.9385 42.8371 63.6048C46.6259 72.5885 56.3554 72.3326 76.2085 72.3326C96.0616 72.3326 105.791 72.5734 109.58 63.6048C112.384 56.9385 113.157 40.6415 113.157 35.8864C113.157 15.09 110.292 12.6372 76.2085 12.6372Z" fill="white"/>
<path d="M76.2085 12.6372C42.14 12.6372 39.2605 15.075 39.2605 35.8864C39.2605 40.6415 40.0334 56.9385 42.8371 63.6048C46.6259 72.5884 56.3554 72.3326 76.2085 72.3326C96.0616 72.3326 105.791 72.5734 109.58 63.6048C112.384 56.9385 113.157 40.6415 113.157 35.8864C113.157 15.09 110.292 12.6372 76.2085 12.6372Z" stroke="#B7B8C2" stroke-width="0.101744" stroke-miterlimit="22.93"/>
<path fill-rule="evenodd" clip-rule="evenodd" d="M110.141 19.6948C110.095 19.6045 107.761 17.0012 105.261 16.1735C104.427 15.9027 101.684 15.1804 100.866 15.361C100.639 15.4061 100.669 15.5114 100.669 15.5867C99.9869 15.0901 99.6384 14.8493 99.4262 14.759C98.6381 14.443 98.4866 14.3076 95.8647 13.796C95.986 13.796 96.3497 13.8261 96.5164 13.8411C98.0622 13.9163 101.639 14.3828 105.443 15.7823C108.353 16.8507 110.186 19.5593 110.232 19.6496C110.232 19.6496 110.201 19.6647 110.201 19.6797C110.186 19.6797 110.171 19.6948 110.156 19.7098L110.141 19.6948Z" fill="#B7B8C2"/>
<path fill-rule="evenodd" clip-rule="evenodd" d="M110.05 53.1465C109.459 57.405 109.05 62.9728 105.973 66.2683C104.897 67.427 96.5012 72.2875 96.8952 68.5406C98.441 56.8633 99.2897 45.1409 100.017 33.3884C100.229 28.4527 100.517 23.5169 100.578 18.5812C100.654 17.7535 100.123 15.692 101.442 15.6468C103.927 16.3691 106.67 17.0914 108.322 19.2583C111.429 23.3815 111.065 29.5662 111.126 34.4418C111.202 40.6566 110.914 46.9768 110.05 53.1465ZM93.5914 15.5415C91.8789 21.7112 89.9087 29.8822 88.1659 36.082C86.7565 41.0328 85.1501 47.4282 79.0577 48.0602C78.1484 48.1505 77.1785 48.2258 76.2086 48.2408C75.2387 48.2408 74.2687 48.1505 73.3594 48.0602C67.2671 47.4282 65.6607 41.0479 64.2512 36.082C62.4933 29.8822 60.5231 21.7112 58.8257 15.5415C58.5378 14.4731 58.9773 14.7139 61.1748 14.4279C65.1454 13.9013 71.0559 13.811 76.2086 13.8712C81.3765 13.826 87.2869 13.9013 91.2424 14.4279C93.455 14.7289 93.8945 14.4881 93.5914 15.5415ZM87.0899 70.858C86.6049 70.9482 84.953 70.9332 83.1193 70.9783C80.8157 71.0385 78.5121 71.0385 76.1934 71.0385C73.8747 71.0385 71.5863 71.0385 69.2676 70.9783C67.449 70.9332 65.7971 70.9332 65.2969 70.858C64.812 70.7677 64.2967 70.7376 64.4483 70.1958C64.5998 69.6541 66.8124 62.5515 66.8124 62.5515C68.2673 57.8414 68.3734 57.5254 72.1016 56.8031C73.3443 56.5624 74.7537 56.4119 76.1934 56.3968C77.618 56.3968 79.0426 56.5624 80.2853 56.8031C84.0134 57.5254 84.1195 57.8414 85.5744 62.5515C85.5744 62.5515 87.787 69.6391 87.9386 70.1958C88.0901 70.7376 87.5749 70.7677 87.0899 70.858ZM46.4441 66.2834C43.3524 62.9878 42.9584 57.4201 42.3673 53.1615C41.5035 46.9918 41.2156 40.6717 41.2913 34.4568C41.352 29.5813 40.9882 23.3966 44.095 19.2734C45.7318 17.0914 48.4748 16.3691 50.9754 15.6619C52.2939 15.7221 51.7635 17.7686 51.8393 18.5962C51.915 23.532 52.1878 28.4677 52.4 33.4035C53.1274 45.156 53.9761 56.8784 55.5219 68.5556C55.916 72.2875 47.5201 67.4421 46.4441 66.2834ZM116.188 29.19C115.915 24.5853 115.233 19.5593 111.793 16.1585C108.656 13.0586 104.139 12.1858 99.9262 11.629C92.0153 10.5606 84.1953 10.2596 76.2086 10.2596C68.2067 10.2596 60.4019 10.5456 52.4758 11.5989C48.2627 12.1557 43.7465 13.0285 40.6094 16.1284C37.1692 19.5292 36.4872 24.5552 36.2144 29.1599C35.8961 34.502 36.1689 39.8139 36.5023 45.1409C36.8358 50.3776 37.4268 55.6745 38.715 60.7758C39.306 63.1383 40.1244 65.5159 41.5035 67.5624C42.8372 69.5187 44.7467 70.9031 46.8987 71.8812C51.4604 73.9428 56.7192 74.1234 61.6446 74.4243C66.479 74.7253 71.3438 74.9059 76.2086 74.9209C81.0734 74.8908 85.9381 74.7253 90.7726 74.4243C95.698 74.1234 100.957 73.9428 105.518 71.8812C107.67 70.9031 109.58 69.5187 110.914 67.5624C112.293 65.531 113.111 63.1534 113.702 60.7758C114.99 55.6745 115.581 50.3776 115.915 45.1409C116.248 39.8139 116.521 34.4869 116.203 29.1599L116.188 29.19Z" fill="#B7B8C2"/>
<path fill-rule="evenodd" clip-rule="evenodd" d="M62.1143 71.4599C62.1294 71.3696 62.1143 71.4599 62.1294 71.3696C62.7053 68.9318 62.9933 67.6076 63.5995 65.4256C64.2663 63.0481 64.8119 61.4981 65.6757 59.256C66.2213 57.8415 67.4489 55.9755 69.2675 55.2983C71.0103 54.6663 72.4349 54.3052 76.2085 54.3052V55.9605C76.2085 56.1109 76.2085 55.9153 76.2085 56.4721C73.1775 56.4721 71.3437 56.6677 69.8737 57.6007C69.1008 58.0973 68.1611 59.0904 67.6004 60.4598C66.7669 62.5063 66.3577 63.9208 65.7515 65.847C65.115 67.9086 64.8119 68.9318 64.4936 70.1357C64.4936 70.1808 64.4482 70.3162 64.4482 70.4216C64.4482 70.4818 64.4482 70.5269 64.4785 70.557C63.751 70.8881 63.5389 70.9633 63.4328 70.9934C63.2964 71.0386 62.9933 71.1589 62.675 71.2643C62.5083 71.3245 62.3568 71.3696 62.0991 71.4449L62.1143 71.4599Z" fill="#B7B8C2"/>
<path fill-rule="evenodd" clip-rule="evenodd" d="M56.7798 13.9013C57.7346 18.6113 60.1594 29.5662 60.6443 31.7934C61.1445 34.0205 63.7814 43.8619 65.2666 46.3448C66.0395 47.6389 66.9034 48.5568 67.9188 49.2189C69.8738 50.4679 72.435 50.7087 76.2086 50.7087V48.0753C73.1776 48.0753 71.3438 47.97 69.8738 47.0219C69.1009 46.5253 68.434 45.803 67.7369 44.7497C65.5697 41.4391 63.8421 34.6374 62.9024 31.2817C62.2962 29.0847 59.4016 17.7385 58.7197 15.06C58.2044 14.759 57.9619 14.6537 57.7497 14.4731C57.5527 14.3226 57.3709 14.2323 56.7646 13.8862L56.7798 13.9013Z" fill="#B7B8C2"/>
<path fill-rule="evenodd" clip-rule="evenodd" d="M76.2085 50.8291C67.1306 50.8291 64.7664 49.1888 61.1747 33.9603C57.5981 18.7317 56.81 13.8862 56.81 13.8862C56.81 13.8862 55.2339 14.0969 53.6578 14.6687C52.0816 15.2406 51.6725 15.9478 51.6725 15.9478C51.6725 15.9478 51.339 26.7071 53.2789 46.3297C55.2036 65.9523 55.5976 69.293 55.5976 69.293C55.5976 69.293 58.6892 71.0987 60.1744 71.3094C61.4929 71.49 62.1143 71.4599 62.1143 71.4599C62.1143 71.4599 63.0084 67.1411 64.3421 63.0932C66.3122 57.1342 66.7669 54.3052 76.2085 54.3052V50.814V50.8291Z" fill="#B7B8C2"/>
<path fill-rule="evenodd" clip-rule="evenodd" d="M76.2085 54.3051C70.495 54.3051 67.8883 55.4789 66.4941 57.6608C65.6151 59.0453 65.0695 60.8962 64.2966 63.2136C63.554 65.4708 63.5085 66.0426 63.1448 67.1561C62.7962 68.2697 62.0991 71.4599 62.0991 71.4599C62.0991 71.4599 59.9925 71.4448 58.962 71.1138C57.1434 70.5269 56.4766 70.256 55.4006 69.6692C55.4006 69.6692 55.5976 69.4735 55.5673 69.2328C55.4006 67.4571 53.9457 53.3421 53.7941 51.7921C53.5062 48.8728 53.688 50.7839 53.2637 46.3297C52.6423 40.0697 52.2635 34.7126 52.021 30.3186C51.5057 20.9437 51.6573 15.9478 51.6573 15.9478C51.6573 15.9478 52.021 15.3308 53.3546 14.774C53.5971 14.6838 55.537 13.8411 55.5824 14.2624C55.6127 14.6085 55.734 15.5866 56.0522 17.4676C56.5372 20.3568 57.5071 25.3678 59.4015 33.4336C59.447 33.5991 59.4773 33.7797 59.5227 33.9452C61.311 41.6498 61.402 45.8783 63.4479 48.7073C64.2814 49.8509 65.0695 50.6786 65.9636 51.3106C68.0853 52.7702 70.8132 53.7183 76.1933 54.3051H76.2085Z" fill="#B7B8C2"/>
<path fill-rule="evenodd" clip-rule="evenodd" d="M36.7902 25.729C36.7902 25.729 37.7299 16.6701 44.7921 14.2624C54.2792 11.0271 65.4484 11.3882 76.2237 11.3882V10.2596C72.7683 10.2596 52.2787 10.3048 44.1253 13.7056C36.8509 16.7303 36.6235 25.6838 36.6235 25.6838C36.6235 25.6838 36.6235 25.6838 36.8054 25.729H36.7902Z" fill="#B7B8C2"/>
<path d="M62.281 70.6323V72.0167H76.2085V70.6323H62.281Z" fill="#B7B8C2"/>
<path fill-rule="evenodd" clip-rule="evenodd" d="M62.281 71.49C62.675 71.3546 63.2206 71.2041 63.5692 71.0687C63.8874 70.9483 64.2209 70.7827 64.5694 70.6323C64.7361 70.7526 64.9483 70.7677 65.1453 70.7827C65.6757 70.8429 66.9639 70.9182 69.8282 70.9784C73.6928 71.0536 76.2085 71.0536 76.2085 71.0536V71.9715C76.2085 71.9715 73.132 72.0167 68.9341 71.8662C65.9637 71.7609 65.6303 71.7458 64.8271 71.7007C64.4936 71.7007 62.2962 71.49 62.2962 71.49H62.281Z" fill="#B7B8C2"/>
<path fill-rule="evenodd" clip-rule="evenodd" d="M43.2312 64.4776C43.4888 65.1698 44.8376 67.2314 46.2774 68.3901C49.3993 70.9031 56.2039 72.1371 59.0531 71.8963C59.4016 71.8662 60.9929 71.9264 61.2506 71.8511C60.2049 71.7308 58.5984 71.2944 56.8859 70.5269C56.4313 70.3162 55.7644 70.0002 55.3401 69.7595C55.2492 69.8498 55.0976 69.9099 54.8854 69.94C54.0974 70.0454 49.0659 69.1726 47.0806 66.9455C46.5047 66.2984 45.459 65.2902 44.8073 63.8907C44.5497 63.9961 44.2769 64.0864 44.0193 64.1917C43.7616 64.297 43.4888 64.3873 43.2312 64.4927V64.4776Z" fill="#B7B8C2"/>
<path fill-rule="evenodd" clip-rule="evenodd" d="M58.7499 14.9546C58.7499 14.9546 58.7499 14.7891 58.9014 14.744C59.0833 14.6838 59.4167 14.6236 60.129 14.5182C61.0838 14.3979 62.7205 14.2474 65.509 14.1571C71.6923 13.9615 75.9812 13.9163 76.2085 13.9163V13.2091C76.2085 13.2091 69.7221 13.0887 65.0695 13.2843C60.7807 13.4649 58.0831 13.5853 57.0222 13.7508C56.8403 13.7809 56.8252 13.826 56.8252 13.826C57.295 14.0969 57.3102 14.0969 57.4466 14.1721C57.5981 14.2624 58.174 14.6085 58.765 14.9546H58.7499Z" fill="#B7B8C2"/>
<path fill-rule="evenodd" clip-rule="evenodd" d="M42.2765 19.6948C42.322 19.6045 44.6558 17.0012 47.1564 16.1735C47.9899 15.9027 50.733 15.1804 51.5514 15.361C51.7787 15.4061 51.7484 15.5114 51.7484 15.5867C52.4304 15.0901 52.7789 14.8493 52.9911 14.759C53.7792 14.443 53.9307 14.3076 56.5526 13.796C56.4313 13.796 56.0676 13.8261 55.9009 13.8411C54.3399 13.9163 50.7785 14.3828 46.9746 15.7823C44.0648 16.8507 42.231 19.5593 42.1704 19.6496C42.1704 19.6496 42.2007 19.6647 42.2159 19.6797C42.231 19.6797 42.2462 19.6948 42.2613 19.7098L42.2765 19.6948Z" fill="#B7B8C2"/>
<path fill-rule="evenodd" clip-rule="evenodd" d="M90.3027 71.4599C90.2875 71.3696 90.3027 71.4599 90.2875 71.3696C89.7116 68.9318 89.4237 67.6076 88.8175 65.4256C88.1507 63.0481 87.6051 61.4981 86.7413 59.256C86.1957 57.8415 84.9833 55.9755 83.1495 55.2983C81.4067 54.6663 79.9973 54.3052 76.2085 54.3052V55.9605C76.2085 56.1109 76.2085 55.9153 76.2085 56.4721C79.2395 56.4721 81.0733 56.6677 82.5433 57.6007C83.3162 58.0973 84.2558 59.0904 84.8166 60.4598C85.6501 62.5063 86.0593 63.9208 86.6655 65.847C87.302 67.9086 87.6051 68.9318 87.9234 70.1357C87.9234 70.1808 87.9688 70.3162 87.9688 70.4216C87.9688 70.4818 87.9688 70.5269 87.9385 70.557C88.6659 70.8881 88.8781 70.9633 88.9842 70.9934C89.1206 71.0386 89.4237 71.1589 89.742 71.2643C89.9087 71.3245 90.0602 71.3696 90.3178 71.4449L90.3027 71.4599Z" fill="#B7B8C2"/>
<path fill-rule="evenodd" clip-rule="evenodd" d="M95.6373 13.9013C94.6825 18.6113 92.2728 29.5662 91.7727 31.7934C91.2726 34.0205 88.6356 43.8619 87.1504 46.3448C86.3775 47.6389 85.5137 48.5568 84.4983 49.2189C82.5433 50.4679 79.9821 50.7087 76.2085 50.7087V48.0753C79.2395 48.0753 81.0733 47.97 82.5433 47.0219C83.3162 46.5253 83.983 45.803 84.6802 44.7497C86.8473 41.4391 88.575 34.6374 89.5146 31.2817C90.1208 29.0847 93.0154 17.7385 93.6974 15.06C94.2127 14.759 94.4552 14.6537 94.6825 14.4731C94.8795 14.3226 95.0614 14.2323 95.6524 13.8862L95.6373 13.9013Z" fill="#B7B8C2"/>
<path fill-rule="evenodd" clip-rule="evenodd" d="M76.2085 50.8291C85.2864 50.8291 87.6506 49.1888 91.2423 33.9603C94.8341 18.7317 95.6221 13.8862 95.6221 13.8862C95.6221 13.8862 97.1982 14.0969 98.7744 14.6687C100.35 15.2406 100.76 15.9478 100.76 15.9478C100.76 15.9478 101.093 26.7071 99.1532 46.3297C97.2286 65.9523 96.8345 69.293 96.8345 69.293C96.8345 69.293 93.7429 71.0987 92.2577 71.3094C90.9392 71.49 90.3178 71.4599 90.3178 71.4599C90.3178 71.4599 89.4237 67.1411 88.0901 63.0932C86.1199 57.1342 85.6652 54.3052 76.2236 54.3052V50.814L76.2085 50.8291Z" fill="#B7B8C2"/>
<path fill-rule="evenodd" clip-rule="evenodd" d="M76.2085 54.3051C81.922 54.3051 84.5286 55.4789 85.9229 57.6608C86.8019 59.0453 87.3475 60.8962 88.1204 63.2136C88.863 65.4708 88.9084 66.0426 89.2722 67.1561C89.6207 68.2697 90.3178 71.4599 90.3178 71.4599C90.3178 71.4599 92.4244 71.4448 93.4398 71.1138C95.2584 70.5269 95.9252 70.256 97.0012 69.6692C97.0012 69.6692 96.8194 69.4735 96.8345 69.2328C97.0012 67.4571 98.4561 53.3421 98.6077 51.7921C98.8956 48.8728 98.7137 50.7839 99.1381 46.3297C99.7594 40.0697 100.138 34.7126 100.381 30.3186C100.896 20.9437 100.745 15.9478 100.745 15.9478C100.745 15.9478 100.396 15.3308 99.0472 14.774C98.8047 14.6838 96.8648 13.8411 96.8194 14.2624C96.7891 14.6085 96.6678 15.5866 96.3496 17.4676C95.8646 20.3568 94.8947 25.3678 93.0003 33.4336C92.9548 33.5991 92.9245 33.7797 92.8791 33.9452C91.0908 41.6498 90.9998 45.8783 88.9539 48.7073C88.1204 49.8509 87.3323 50.6786 86.4382 51.3106C84.3164 52.7702 81.5885 53.7183 76.2085 54.3051Z" fill="#B7B8C2"/>
<path d="M76.2083 70.6323V72.0167H90.1206V70.6323H76.2083Z" fill="#B7B8C2"/>
<path fill-rule="evenodd" clip-rule="evenodd" d="M90.1209 71.49C89.742 71.3546 89.1813 71.2041 88.8327 71.0687C88.5144 70.9483 88.181 70.7827 87.8325 70.6323C87.6657 70.7526 87.4536 70.7677 87.2566 70.7827C86.7261 70.8429 85.438 70.9182 82.5585 70.9784C78.694 71.0536 76.1782 71.0536 76.1782 71.0536V71.9715C76.1782 71.9715 79.2547 72.0167 83.4526 71.8662C86.423 71.7609 86.7564 71.7458 87.5597 71.7007C87.8931 71.7007 90.0906 71.49 90.0906 71.49H90.1209Z" fill="#B7B8C2"/>
<path fill-rule="evenodd" clip-rule="evenodd" d="M109.171 64.4776C108.913 65.1698 107.564 67.2314 106.125 68.3901C103.003 70.9031 96.198 72.1371 93.3489 71.8963C93.0003 71.8662 91.409 71.9264 91.1514 71.8511C92.2122 71.7308 93.8035 71.2944 95.516 70.5269C95.9707 70.3162 96.6223 70.0002 97.0618 69.7595C97.1528 69.8498 97.3043 69.9099 97.5165 69.94C98.3046 70.0454 103.336 69.1726 105.321 66.9455C105.897 66.2984 106.943 65.2902 107.595 63.8907C107.852 63.9961 108.125 64.0864 108.383 64.1917C108.64 64.297 108.913 64.3873 109.171 64.4927V64.4776Z" fill="#B7B8C2"/>
<path fill-rule="evenodd" clip-rule="evenodd" d="M107.686 63.6951C107.822 63.3941 108.474 61.4228 108.792 60.0534C108.868 59.7224 109.474 56.4871 109.58 55.8851C109.959 54.1546 110.413 51.2353 110.732 47.8947C111.368 41.2585 111.762 33.7495 111.762 31.3719C111.838 31.703 111.899 35.3597 111.929 35.8563C111.944 36.1572 111.959 38.1285 111.959 38.5047C111.959 48.0301 109.898 62.7169 107.67 63.6951H107.686Z" fill="#B7B8C2"/>
<path fill-rule="evenodd" clip-rule="evenodd" d="M93.6671 14.9546C93.6671 14.9546 93.6671 14.7891 93.5156 14.744C93.3337 14.6838 93.0003 14.6236 92.288 14.5182C91.3332 14.3979 89.6965 14.2474 86.908 14.1571C80.7247 13.9615 76.4358 13.9163 76.2085 13.9163V13.2091C76.2085 13.2091 82.6949 13.0887 87.3475 13.2843C91.6363 13.4649 94.3339 13.5853 95.3948 13.7508C95.5767 13.7809 95.5918 13.826 95.5918 13.826C95.122 14.0969 95.1068 14.0969 94.9704 14.1721C94.8189 14.2624 94.243 14.6085 93.652 14.9546H93.6671Z" fill="#B7B8C2"/>
<path fill-rule="evenodd" clip-rule="evenodd" d="M30.7145 117.796C30.6817 117.373 30.649 117.13 30.649 116.723V108.533C30.649 108.046 30.4853 107.266 31.4673 107.119L33.8731 106.876V104.974H21.0584V106.876C21.5985 106.876 23.1042 107.054 23.5297 107.217C23.7752 107.314 24.2826 107.493 24.2826 108.549V111.475H14.1028V108.419C14.1028 108.029 14.1847 107.412 14.9048 107.168C15.3467 107.006 16.7378 106.957 17.3924 106.892V104.991H4.41406V106.892C5.34693 106.989 6.11614 106.989 6.99991 107.184C7.75276 107.363 7.70366 108.159 7.70366 108.598V117.065C7.68729 117.893 7.68729 117.715 7.68729 117.715C7.68729 118.462 6.93445 118.69 6.39437 118.706L4.43043 118.852V120.754H17.3924V118.852C16.9833 118.852 15.7067 118.674 15.1503 118.609C14.1192 118.462 14.1028 117.845 14.1028 117.276V114.481H24.2826V116.886C24.2826 117.406 24.5117 118.381 23.3988 118.56C22.4496 118.706 21.4021 118.852 21.0584 118.852V120.754H33.955V118.852C33.1858 118.771 32.9075 118.771 31.4509 118.56C31.0091 118.495 30.7799 118.153 30.7472 117.845L30.7145 117.796Z" fill="#B7B8C2"/>
<path fill-rule="evenodd" clip-rule="evenodd" d="M57.2767 106.518C54.7072 104.844 51.2867 104.519 47.6861 104.519C44.5111 104.519 40.7305 105.007 38.472 106.437C35.9516 108.029 34.6914 110.727 34.6914 112.986C34.6914 115.033 36.0825 117.763 38.2429 119.259C40.5341 120.851 44.1183 121.306 47.4897 121.306C51.0739 121.306 54.3472 121.062 56.9821 119.454C59.4207 117.991 60.91 115.488 60.8609 112.921C60.8282 110.386 59.6007 108.094 57.2767 106.518ZM42.0234 114.562C41.5161 112.596 41.958 110.532 43.0872 109.232C44.9693 106.827 50.5666 106.989 52.3668 109.329C53.8071 111.02 53.8071 113.668 52.8415 115.83C51.7122 117.958 49.47 118.397 46.6714 118.3C44.2492 118.072 42.6454 116.951 42.0234 114.578V114.562Z" fill="#B7B8C2"/>
<path fill-rule="evenodd" clip-rule="evenodd" d="M79.9931 104.909V106.876C82.8571 106.892 83.1681 107.574 83.1681 109.362V116.983L73.7412 104.893H61.8921V106.794C63.3487 106.794 65.149 107.347 65.149 109.297V116.285C65.018 118.186 65.1162 118.739 61.9739 118.82V120.721H71.8754V118.82C68.7822 118.771 68.815 117.861 68.815 116.025V108.956L78.0128 120.884H86.8668V110.223C86.8668 109.589 86.8505 108.842 87.0141 108.224C87.3578 106.989 88.4053 106.957 90.091 106.811V104.909H79.9767H79.9931Z" fill="#B7B8C2"/>
<path fill-rule="evenodd" clip-rule="evenodd" d="M115.082 106.957C114.1 106.274 112.791 105.836 111.449 105.478C109.747 105.023 107.406 104.974 105.688 104.958H102.545L91.4165 104.974V106.876L93.5932 107.087C94.166 107.217 94.5588 107.639 94.5424 108.436V117.52C94.5424 117.52 94.4606 118.316 93.8387 118.56C93.2168 118.804 92.3167 118.836 91.4001 118.836V120.737H103.118C104.755 120.721 108.323 120.819 110.565 120.445C113.036 120.039 115.54 118.82 116.604 117.26C117.946 115.277 118.093 114.058 118.093 112.677C118.093 110.597 117.275 108.533 115.082 106.957ZM110.598 112.612C110.712 114.936 110.319 118.121 105.148 117.861H100.5V107.997H105.36C107.112 107.997 108.077 108.208 109.125 109.004C110.303 109.914 110.532 111.247 110.598 112.596V112.612Z" fill="#B7B8C2"/>
<path fill-rule="evenodd" clip-rule="evenodd" d="M122.512 104.926V106.957C122.512 106.957 127.242 106.616 125.18 109.687L121.399 115.846C120.204 117.731 119.844 118.82 116.849 118.836V120.737H127.095V118.836C125.703 118.739 123.658 118.495 124.803 116.74C124.803 116.74 125.343 115.96 125.327 115.927H135.376L135.965 116.74C137.618 119.129 133.576 118.836 133.576 118.836V120.737H147.258V118.836C144.999 118.787 144.541 118.446 143.723 117.195L135.163 104.909H122.496L122.512 104.926ZM126.767 113.278L130.221 107.932L133.772 113.278H126.767Z" fill="#B7B8C2"/>
</svg>
