<svg width="130" height="130" viewBox="0 0 130 130" fill="none" xmlns="http://www.w3.org/2000/svg">
<path fill-rule="evenodd" clip-rule="evenodd" d="M95.3167 13.4466C95.3267 12.8851 95.3384 12.3252 95.3484 11.7637L64.688 5.97955L34.1445 11.6767C34.1512 12.1939 34.1596 12.7488 34.1679 13.3382C34.2982 13.3152 63.7628 7.89392 64.688 7.83318C64.9001 7.82004 93.974 13.197 95.3167 13.4466Z" fill="#B7B8C2"/>
<path fill-rule="evenodd" clip-rule="evenodd" d="M64.9336 88.5224L66.5219 87.4749C67.1498 87.0611 67.7744 86.6425 68.394 86.2189C70.9475 84.4736 73.2805 82.6873 75.5585 80.6055C76.7509 79.5169 77.8915 78.3759 78.9804 77.1872C82.0216 73.8658 84.6135 70.2045 86.8146 66.297C87.6246 64.8604 88.3828 63.3975 89.0875 61.9083C89.3664 61.3189 89.6353 60.7262 89.8942 60.1286C90.8027 57.9745 91.601 55.7564 92.2873 53.5088C92.4961 52.8077 92.6915 52.1034 92.8752 51.3974C93.2376 50.0067 93.5549 48.6063 93.8305 47.1976C94.0626 46.0056 94.2663 44.812 94.44 43.6184C95.2567 38.6355 95.2567 31.8678 95.2116 22.5636C95.2116 21.7936 95.2166 21.0236 95.2233 20.2519C95.2233 20.2388 95.2233 20.2256 95.2233 20.2125L93.6167 19.5098C74.5147 11.1529 54.6662 11.1808 35.5475 19.5935L34.2649 20.1583C34.3183 23.8311 34.3768 27.6385 34.4286 30.5741L34.4653 32.6231C34.4803 33.4932 34.5004 34.3618 34.5221 35.2319C34.5388 35.8575 34.5605 36.4847 34.5872 37.1102C34.6039 37.5272 34.624 37.9426 34.6457 38.3596C34.6757 38.949 34.7141 39.5385 34.7609 40.1279C34.7809 40.3873 34.8043 40.6467 34.8327 40.9061C34.9296 42.0931 35.0715 43.2769 35.2586 44.4541C35.4623 45.7429 35.7112 47.0252 36.0034 48.2992C36.8986 52.2117 38.1678 56.1045 39.7092 59.815C41.4177 63.9278 43.6589 68.254 46.2942 71.8595C46.8086 72.5638 47.3364 73.2599 47.8741 73.9462C49.788 76.3893 51.8505 78.6911 54.1451 80.7976C54.8733 81.4658 55.6215 82.1127 56.3897 82.7349C57.2481 83.4311 58.1282 84.1009 59.0284 84.7445C59.9319 85.3881 60.847 86.0153 61.7756 86.6228C62.2632 86.9429 62.7509 87.2598 63.2419 87.575C63.7663 87.9133 64.2923 88.2498 64.8184 88.5864C64.8501 88.5683 64.8902 88.5453 64.9353 88.5191L64.9336 88.5224Z" fill="#B7B8C2"/>
<path fill-rule="evenodd" clip-rule="evenodd" d="M75.1342 72.1254H75.6703C75.7003 72.1254 75.707 72.1254 75.7354 72.1172C76.0126 72.0483 76.0561 72.0548 76.2348 71.8956C76.4836 71.6756 76.8493 71.3357 76.7692 71.1847C76.6372 70.9351 76.5153 71.2405 76.1997 71.3948C76.1579 71.4162 76.1179 71.4211 76.0544 71.4227C75.8339 71.431 75.3096 71.4047 75.3096 71.4047C75.3096 71.4047 75.4599 70.9417 75.5868 70.6051C75.8523 69.9008 76.1629 69.5018 76.6222 68.8467C76.6389 68.8221 76.6439 68.8204 76.674 68.8172C78.4426 68.6415 79.0271 68.6513 80.5769 67.9667C80.8858 67.8304 81.2566 67.6548 81.2566 67.6548L81.2098 67.4298C81.2098 67.4298 80.4767 67.6186 79.9339 67.7385C78.9002 67.9651 77.7094 68.0422 76.7241 67.9536C74.3543 67.7401 74.1572 67.3133 72.5373 67.7237C71.8459 67.8994 71.1177 68.254 70.7871 68.8943C70.575 69.3064 70.5566 69.7957 70.8605 70.1979C71.071 70.4771 71.5286 70.5362 71.8375 70.4639C72.2617 70.3638 72.6943 70.1454 72.8596 69.8187C72.9097 69.7185 73.0149 69.4214 72.9765 69.359C72.9164 69.2637 72.8028 69.4197 72.6993 69.5166C72.3302 69.863 71.7858 69.8712 71.5319 69.5396C71.1929 69.0979 71.6572 68.6825 72.1147 68.4986C72.6542 68.2819 73.1118 68.3164 73.7347 68.4264C74.4395 68.5528 75.6051 68.8188 75.6051 68.8188C75.6051 68.8188 74.9973 69.4772 74.7417 69.8745C74.401 70.4048 74.0303 71.3374 73.9468 71.3801C73.86 71.4244 73.7531 71.4211 73.5894 71.4654C73.1802 71.5787 72.9314 71.8086 72.7427 72.1189C72.7143 72.1649 72.6993 72.2157 72.7277 72.2535C72.7627 72.2995 72.8512 72.3569 72.8512 72.3569C72.8512 72.3569 72.9581 72.2699 73.04 72.2108C73.207 72.091 73.4341 72.0351 73.6094 72.0959C73.6729 72.1172 73.6679 72.1566 73.6629 72.265C73.6629 72.2946 73.6595 72.2995 73.6479 72.3257C73.1151 73.4061 72.8162 74.2368 71.9778 74.9921C71.273 75.6291 70.0439 75.6964 69.3041 75.107C68.8648 74.7557 68.5208 74.0677 68.6277 73.5144C68.6544 73.3782 68.7129 73.1894 68.783 73.1697C68.8648 73.1467 69.0168 73.2797 69.1521 73.3273C69.3709 73.4028 69.7249 73.2304 69.8518 73.035C70.0606 72.7149 69.9854 72.3274 69.6999 72.109C69.4443 71.912 69.0085 71.9301 68.7279 72.0811C67.8411 72.5589 67.9179 74.0086 68.2903 74.7195C68.7914 75.6734 69.8418 76.2234 70.8438 76.1972C71.9077 76.1676 72.8212 75.6439 73.6161 74.7852C73.6913 74.7048 73.7581 74.6243 73.8265 74.5406C74.3793 73.851 74.6816 73.0055 75.0891 72.2486C75.1158 72.1977 75.1342 72.1583 75.1342 72.1386C75.1342 72.132 75.1342 72.1238 75.1342 72.1238V72.1254ZM55.0869 72.0351V72.0253C55.0869 72.0253 54.935 72.0072 54.8248 72.0105C54.454 72.022 54.0281 72.4111 53.8762 72.7132C53.5856 73.2944 53.6741 74.1941 53.978 74.7064C54.4106 75.4354 55.1087 75.8705 55.9186 76.0839C56.9958 76.3663 58.3903 76.0231 59.1585 75.3237C59.8766 74.6686 60.1656 73.8576 60.0336 72.8856C59.9585 72.3241 59.738 71.8742 59.3422 71.5081C59.222 71.3981 58.3435 70.858 58.078 70.7332C57.6137 70.5148 55.608 69.7924 55.3491 69.07C55.2289 68.7351 55.3508 68.3804 55.6848 68.2245C56.3144 67.9289 56.9975 68.1407 57.6405 68.4248C58.0329 68.5988 58.549 68.9485 58.8145 69.3015C59.0316 69.5905 59.3138 70.0748 59.4124 70.1175C59.4825 70.147 59.541 70.1306 59.581 70.065C59.6195 70.0042 59.3856 69.4345 59.2604 68.9994C59.1585 68.6464 59.1852 68.0406 59.1001 67.8091C59.065 67.7122 59.0082 67.658 58.8963 67.6942C58.7744 67.7336 58.6742 67.8879 58.5456 67.9519C58.1849 68.1342 57.3899 67.6843 57.086 67.5792C56.3879 67.3395 55.2907 67.4709 54.7663 68.0718C54.444 68.4428 54.3254 68.7285 54.2987 69.1554C54.2903 69.2966 54.287 69.4082 54.2937 69.5084C54.3488 70.2341 55.1755 70.8547 55.7316 71.1847C55.9003 71.2848 56.0572 71.3735 56.1374 71.408C56.9424 71.761 58.3486 72.3093 58.569 72.4637C59.2237 72.9201 59.4224 73.7213 59.0266 74.4765C58.2918 75.8754 55.8201 75.8655 54.7362 74.7721C54.4289 74.4618 54.1534 73.8658 54.3421 73.4011C54.4323 73.1795 54.5308 73.3322 54.8381 73.3864C55.1521 73.4422 55.5078 73.0941 55.5679 72.8561C55.6397 72.5704 55.5412 72.2896 55.289 72.1402C55.2356 72.109 55.1755 72.0795 55.117 72.0516C55.0903 72.0384 55.0869 72.0368 55.0869 72.0335V72.0351ZM64.668 87.1301L63.2334 86.1647C62.3383 85.5622 60.6966 84.5344 59.6395 83.8284C59.3305 83.6232 55.5663 80.6121 55.1387 80.2295C54.4239 79.5892 52.3698 77.6272 51.8638 77.0969C51.5264 76.7455 48.0961 72.664 47.7788 72.2355C47.3479 71.6559 45.1986 68.4806 44.7878 67.8157C41.588 62.6439 39.5405 57.6741 37.9439 51.8472C37.6583 50.8047 37.0404 48.2516 36.8634 47.388C36.3791 45.014 35.9432 41.8879 35.7545 39.3694C35.6843 38.4319 35.6459 37.5305 35.6092 36.4584C35.4722 32.4622 35.2869 21.0663 35.2869 21.0663C35.2869 21.0663 35.3336 21.04 35.4104 20.9957C54.8498 12.3235 74.8937 12.3761 94.2863 21.15C94.2896 21.1533 94.293 21.1582 94.2947 21.1615C94.3247 21.214 94.3314 21.2699 94.3381 21.3273C94.3648 21.5539 94.0575 36.1103 94.0024 37.2038C93.792 41.3658 93.478 44.111 92.5294 48.534C92.3641 49.3057 91.5658 52.4071 91.3337 53.1804C91.1149 53.911 89.839 57.5904 89.5534 58.3144C86.7477 65.4465 82.8682 71.651 77.5007 77.2233C77.008 77.7356 74.6432 79.9799 74.0787 80.4709C73.6662 80.8304 69.603 83.9778 69.1888 84.2569C68.5041 84.7199 67.2098 85.531 65.989 86.2977L64.668 87.1285V87.1301ZM45.3706 43.157H45.3556C45.3556 43.157 45.3606 43.3574 45.384 43.4575C45.4424 43.6923 45.9668 43.5084 46.2123 43.4197C46.8703 43.18 47.9057 42.6267 48.011 41.9372C48.0611 41.6104 47.8607 41.6219 47.6469 41.0769C47.5901 40.934 47.6118 40.8207 47.7053 40.6664C47.7772 40.5482 47.8774 40.4398 47.9391 40.3167C47.9859 40.2231 48.0093 40.1213 48.026 40.0162C48.1596 39.2314 48.1629 39.0082 48.7124 38.3449C49.1917 37.7669 50 36.9378 50.2739 36.5388C50.4993 36.2088 50.688 35.8509 50.8434 35.5751C50.8918 35.4881 50.9452 35.4043 51.017 35.3666C51.0738 35.337 51.3928 35.3469 51.4997 35.383C51.655 35.4339 51.7452 35.5111 51.8788 35.6752C52.2161 36.089 52.6002 36.7966 52.8274 37.0265C53.4119 37.6192 54.3839 38.4483 54.3588 38.4992C54.272 38.688 53.6707 38.3301 53.4687 38.2217C53.3468 38.1577 51.8454 37.7604 51.513 37.7062C50.4943 37.5371 50.0968 37.3811 49.347 38.0214C48.8644 38.4335 48.5771 38.9704 48.522 39.4843C48.507 39.6238 49.1282 44.546 49.1783 44.6905C49.2735 44.9647 49.3804 45.344 49.3821 45.4786C49.3887 45.9367 49.2952 46.0582 49.5858 46.5195C49.7478 46.7773 49.985 46.9891 50.1553 47.2485C50.3273 47.5095 50.5177 48.1269 50.7248 48.5685C50.855 48.8443 51.4897 49.882 51.8688 50.1972C52.2128 50.4829 52.4449 50.3696 52.7238 49.9903C53.148 49.4124 53.1614 47.9857 52.9176 47.4471C52.824 47.2403 52.6654 47.0662 52.4466 46.9694C52.1577 46.8429 51.5815 46.7149 51.5815 46.7149C51.5815 46.7149 51.4963 45.7708 51.3961 45.4638C51.3327 45.2668 51.2258 45.1141 51.1339 44.9483C50.6663 44.1027 50.7231 43.2621 50.6814 42.2524C50.6713 42.0258 50.6546 41.796 50.5945 41.5776C50.5093 41.2722 50.3724 40.783 50.3908 40.7173C50.4375 40.5433 50.6379 40.4021 50.8283 40.4168C51.2759 40.4497 51.6032 40.7961 51.9573 41.0621C52.1594 41.2131 53.2232 41.7943 53.8428 42.1375C54.0632 42.259 54.3271 42.4429 54.4256 42.5529C54.5191 42.6563 54.5893 42.7745 54.6795 42.8894C54.9049 43.1784 55.279 43.4854 55.5846 43.5987C56.3712 43.8926 56.5148 43.7317 56.8255 44.0633C56.9791 44.2275 57.2831 44.6774 57.4968 45.0254C57.724 45.3981 57.921 45.7364 58.1381 46.0582C58.2984 46.2946 59.3439 47.5194 59.5877 47.7575C60.1121 48.2681 64.0685 51.4417 64.7398 52.0738C64.8885 52.2134 65.5949 52.875 65.6817 53.1919C65.7034 53.2707 65.7001 53.3676 65.6283 53.3922C65.5982 53.4037 65.5632 53.3922 65.5264 53.3774C65.4529 53.3479 64.4876 52.3743 64.3457 52.1871C64.2722 52.0886 62.8944 51.0148 62.8209 50.9968C62.7408 50.9787 62.6556 50.9623 62.6556 50.9623C62.6556 50.9623 62.5938 51.1741 62.5571 51.3416C62.4418 51.8784 62.5454 53.0901 62.6155 53.4924C62.8744 54.9667 63.504 56.4953 64.2939 57.881C64.7031 58.6001 65.3277 59.5901 65.3277 59.5901C65.3277 59.5901 65.1807 59.9743 65.0521 60.1894C64.8467 60.5341 64.6663 60.5818 64.2204 60.5916C63.4071 60.6097 62.2464 60.6228 61.7989 60.5916C60.69 60.5128 58.888 60.2961 58.5156 60.3191C58.3151 60.3306 58.1198 60.3552 57.9327 60.4044C57.8158 60.4356 57.7022 60.475 57.582 60.5046C57.2697 60.5818 56.0506 60.5703 55.5395 60.6622C55.0034 60.7591 54.0699 61.0907 53.7309 61.5143C53.477 61.8312 53.6323 62.0233 53.9647 62.2548C54.1 62.3484 55.0051 62.7473 55.2339 62.8146C55.7182 62.9542 56.4597 63.1479 56.7653 62.7227C56.8472 62.6111 56.9073 62.4666 56.9992 62.3484C57.1778 62.1169 57.4117 61.9675 57.6555 62.0118C57.8459 62.0463 58.0296 62.1694 58.225 62.2121C58.3369 62.2367 58.6241 62.2203 58.8112 62.1776C59.9067 61.9281 60.0453 61.9002 61.4932 62.0249C61.9575 62.0643 63.3654 62.2843 63.7111 62.3697C64.5027 62.5651 65.792 62.9164 66.0308 62.9427C66.3882 62.9821 66.6787 62.9821 66.8775 62.7506C66.9543 62.6603 67.2282 62.0742 67.2416 61.9675C67.2566 61.8542 67.1981 61.4782 67.1397 61.3074C66.7539 60.1861 66.4583 59.7723 66.308 58.912C66.2679 58.6772 66.2128 57.2226 66.2345 56.9468C66.2863 56.295 66.4867 55.52 66.7739 54.8813C67.2132 53.911 67.8611 53.2034 68.1016 52.3283C68.2068 51.9458 68.3204 51.3383 68.3204 51.3383C68.3204 51.3383 68.3805 51.3383 68.4223 51.3531C68.5525 51.399 68.5041 51.9211 68.4958 51.9983C68.4757 52.1855 68.3972 52.435 68.3054 52.6583C68.0465 53.297 67.2983 54.5497 66.9777 55.3115C66.4934 56.4624 66.47 57.7348 66.7589 59.0976C66.9192 59.8594 67.3885 61.2697 67.7359 61.8657C68.135 62.5487 68.8448 63.6093 68.8882 63.7866C68.9534 64.0493 68.8181 64.3038 68.626 64.5977C68.5325 64.7405 67.7442 65.5565 67.5539 65.7075C66.4449 66.5892 64.4459 68.1703 64.3941 68.2524C64.2472 68.4872 64.1586 68.7334 63.985 68.9584C63.8447 69.1406 62.9829 69.7497 62.4719 70.1766C62.3233 70.2997 61.8924 70.8021 61.8256 70.9286C61.6903 71.1847 61.5584 71.5032 61.7972 71.6313C62.0243 71.7528 62.8109 71.8234 62.9495 71.8316C63.8113 71.8857 64.3975 71.8398 65.1089 71.559C65.4129 71.4392 65.6266 71.252 65.5314 70.9286C65.4579 70.6757 65.3344 70.5115 65.4296 70.2685C65.4797 70.1421 65.5932 70.0502 65.7268 69.9763C66.1794 69.7251 66.3798 69.7251 66.5535 69.2654C66.5886 69.1718 66.6053 69.0799 66.6403 68.9928C66.6938 68.8631 66.824 68.7072 66.946 68.5676C67.8829 67.5004 68.1 67.2262 69.1554 66.425C69.436 66.2116 70.3195 65.6583 70.5065 65.5795C70.8622 65.4284 71.3298 65.2692 71.3966 64.9047C71.4601 64.5648 71.4234 63.7735 71.2948 63.4714C71.1946 63.2366 70.9808 62.9903 70.8422 62.7408C70.4865 62.0939 70.5082 61.3403 70.8138 60.718C70.9357 60.4685 71.0543 60.2797 71.2079 60.1007C71.3666 59.9152 73.237 58.6625 73.9735 58.0501C74.563 57.5592 75.7922 56.1045 76.0243 55.2393C76.1613 54.7303 76.3082 53.8059 76.3884 53.6976C76.4936 53.558 76.7057 53.5777 76.826 53.7534C76.9896 53.9915 76.9763 54.3674 76.9429 54.6515C76.8794 55.19 76.7007 56.024 76.6072 56.5445C76.5788 56.6988 76.5871 56.9665 76.6222 57.0896C76.6823 57.2981 76.8126 57.5772 76.8126 57.5772C76.8126 57.5772 76.8543 57.17 76.9295 56.8745C77.0347 56.4559 77.2017 56.2605 77.2802 55.9715C77.3453 55.7302 77.332 55.0078 77.6743 54.9536C77.8631 54.9224 77.9132 55.2655 77.9365 55.4839C78.0017 56.0667 77.9081 56.5232 77.6476 57.1536C77.3871 57.7792 76.4418 58.9334 76.5654 59.6426C76.5905 59.7805 76.669 60.0301 76.7558 60.1385C76.8326 60.2353 76.9746 60.37 76.9746 60.37V59.7756C76.9746 59.7461 76.9746 59.7395 76.9846 59.7132C77.1049 59.3734 77.2451 59.1238 77.499 58.7889C78.2238 57.8317 78.4008 57.8317 78.7832 56.9336C79.0254 56.3655 79.1072 55.9781 79.1774 55.3706C79.1974 55.1999 79.144 54.4627 79.1039 54.3674C79.0738 54.2936 78.5678 53.5662 78.7682 53.4201C78.9419 53.2937 79.336 53.9406 79.3811 54.0374C79.6851 54.6794 79.5932 55.0078 79.6149 55.7729C79.6283 56.2211 79.7619 56.6857 80.0959 57.1159C80.141 57.175 80.1995 57.2341 80.2412 57.2078C80.2562 57.198 80.2646 57.175 80.2696 57.1503C80.3063 56.9927 80.0976 56.1357 80.1093 55.7729C80.1176 55.5463 80.3431 55.0045 80.4149 54.6827C80.4466 54.5448 80.4466 54.3921 80.4149 54.2377C80.3197 53.783 79.989 52.9358 80.0208 52.852C80.0642 52.7404 80.3982 52.6879 80.809 52.5302C82.1451 52.0196 83.1588 50.652 83.4945 49.5323C83.7349 48.7245 83.8168 47.8822 83.7283 46.994C83.5279 44.9828 83.1855 44.7907 83.5462 42.9354C83.583 42.7482 83.6197 42.589 83.6982 42.4199C83.8552 42.08 84.5165 41.2591 84.7103 40.8601C84.9073 40.4579 84.9441 40.205 84.8789 39.7092C84.8472 39.4646 84.772 39.3349 84.6451 39.4367C84.5499 39.5122 84.276 40.2625 84.0322 40.7698C83.9688 40.9028 83.2072 41.8715 83.0636 42.0028C82.7864 42.2557 82.5592 42.4363 82.4123 42.1178C82.2352 41.7319 82.2803 41.1261 82.3839 40.7846C82.4523 40.5548 82.5442 40.3265 82.6761 40.0967C82.9483 39.6206 83.6598 38.8029 83.917 38.3465C84.0923 38.0345 84.4948 37.1332 84.3846 36.7983C84.3161 36.5914 84.1992 36.6177 84.0639 36.7753C83.9186 36.9444 83.588 37.501 83.3776 37.8539C83.2523 38.0641 83.0953 38.2792 82.955 38.4122C82.7145 38.6387 82.3338 38.9047 82.2553 39.0476C82.2402 39.0771 82.2319 39.1034 82.2102 39.1362C82.12 39.2823 81.2683 39.9292 81.2683 39.9292C81.2683 39.9292 81.2249 39.4071 81.2315 39.064C81.2466 38.2792 81.8227 36.9772 82.3254 36.4042C82.758 35.9117 83.6097 35.1285 83.6381 35.0202C83.6665 34.9118 83.6264 34.8445 83.4928 34.8773C83.3709 34.9069 83.2456 34.9922 83.1187 35.0776C82.4774 35.5143 82.105 35.759 81.6541 36.2302C81.1414 36.7654 80.7122 37.3778 80.4583 37.9886C80.0525 38.9622 79.9823 40.0983 80.1377 41.0998C80.2462 41.7993 80.5719 42.8467 80.7506 43.7103C80.9961 44.8974 81.1196 46.9447 80.809 48.1564C80.5702 49.089 80.0625 49.8803 79.3143 50.5223C78.7766 50.9836 78.2572 51.2151 77.4956 51.4828C77.3938 51.5189 77.3036 51.5501 77.16 51.5681C76.8978 51.6043 76.4602 51.5993 76.4602 51.5993C76.4602 51.5993 76.0711 50.3236 75.8039 49.7244C75.3363 48.6752 73.9835 47.1451 73.222 46.4095C72.9197 46.1173 72.0196 45.3719 71.7273 45.1699C71.3181 44.8875 70.7971 44.5657 70.5366 44.3474C69.6297 43.5856 68.3989 41.8124 67.9246 40.668C67.5572 39.7815 67.4152 38.9671 67.6323 38.0723C67.6975 37.8031 67.7793 37.7325 68.0415 37.8425C68.2235 37.9196 68.3772 38.0805 68.5676 38.1872C68.7646 38.2972 69.4293 38.3941 69.8084 38.532C69.9437 38.5813 70.0623 38.647 70.1875 38.7323C70.6251 39.0361 71.3933 39.678 71.5453 39.7223C71.6221 39.7453 71.724 39.7535 71.7791 39.6944C71.8943 39.568 71.6672 39.4777 71.5386 39.394C71.4367 39.3267 71.3081 39.1789 71.2246 39.0426C70.9173 38.537 70.9056 38.4269 70.4447 38.0887C70.3913 38.0493 70.3395 38.0132 70.276 37.9886C70.1274 37.9295 69.8585 37.9262 69.78 37.8113C69.75 37.7686 69.765 37.739 69.8184 37.716C70.0021 37.6389 70.5816 37.8375 70.7002 37.9032C71.0142 38.0789 71.4818 38.5287 71.6187 38.5632C71.6822 38.578 71.7273 38.5583 71.7507 38.4631C71.7858 38.3153 71.7039 38.1971 71.6187 38.1051C71.2831 37.7357 70.5182 37.1069 70.0289 36.9723C69.6999 36.882 69.6281 36.923 69.2707 36.7293C69.122 36.6488 69.0519 36.5553 69.1487 36.4994C69.1888 36.4765 70.2627 36.7178 70.423 36.7868C70.8622 36.9739 72.0463 37.5798 72.7427 37.5748C73.1318 37.5732 73.7798 37.4238 74.0637 37.1726C74.1171 37.125 74.2257 37.0265 74.2307 36.9575C74.2357 36.9 74.2157 36.8147 74.2157 36.8147C74.2157 36.8147 74.1439 36.818 74.0837 36.8295C74.0019 36.8442 73.8165 37.0018 73.6896 37.0872C73.6195 37.1348 73.1802 37.2301 73.0333 37.2301C72.736 37.2301 72.4371 37.1611 72.2233 36.9871C71.931 36.749 71.5469 36.245 71.2614 36.0397C70.9875 35.8427 70.6301 35.8 70.1441 35.6375C69.8468 35.539 69.4243 35.3485 69.1888 35.2073C69.1638 35.1925 69.0419 35.1088 69.107 35.0727C69.117 35.0661 69.1354 35.0645 69.1371 35.0481C69.1371 35.0415 69.1371 35.0333 69.1371 35.0333C69.1371 35.0333 69.745 35.2385 70.2192 35.3009C70.5633 35.3469 71.7891 35.2122 71.9528 35.2631C72.2567 35.3551 72.6007 35.603 72.8429 35.6506C72.9648 35.6736 73.0199 35.6326 72.9949 35.516C72.9882 35.4881 72.9848 35.4815 72.9631 35.4634C72.3736 34.9922 71.886 34.4882 71.1946 34.4028C71.0576 34.3864 70.5716 34.4078 70.5716 34.2895C70.5716 34.2436 70.7587 34.1861 70.8889 34.1598C71.1929 34.0974 71.5085 34.1615 71.8225 34.3322C72.2467 34.5621 72.245 34.6376 72.5957 34.7197C72.9013 34.7919 73.4441 34.8839 73.6829 34.7345C73.7631 34.6836 73.7414 34.526 73.6762 34.4767C73.5961 34.416 73.3556 34.3995 73.1953 34.347C73.1251 34.324 73.0683 34.2961 73.0132 34.2616C72.7226 34.081 72.3469 33.7133 72.1014 33.6016C71.4968 33.3274 71.0893 33.5195 70.6869 33.0368C70.6034 32.9383 70.6034 32.8595 70.6819 32.8267C70.7336 32.8053 71.0309 32.871 71.1394 32.9268C71.3699 33.0467 71.8542 33.4522 72.0446 33.2421C72.1966 33.0729 71.6271 32.8431 71.3582 32.5771C71.2897 32.5098 71.228 32.3867 71.2847 32.3391C71.3031 32.3243 71.3348 32.3292 71.3716 32.3391C71.6271 32.4113 72.1448 32.7528 72.4955 32.8694C72.6542 32.9219 72.7778 32.9285 72.9047 32.9991C73.0734 33.0927 73.5944 33.8167 73.905 33.6739C74.0771 33.5934 73.8249 33.4177 73.7213 33.3241C73.5777 33.1944 73.379 32.7594 73.2103 32.4901C72.9548 32.0813 72.6876 31.899 72.3118 31.7513C72.1281 31.679 71.916 31.5641 71.8025 31.464C71.5519 31.2423 71.3616 30.868 71.1612 30.7186C71.0493 30.6348 70.9207 30.5938 70.7503 30.5183C70.4798 30.3968 70.418 30.3557 70.4681 30.2539C70.5249 30.1406 70.595 30.1374 70.7854 30.1439C70.8155 30.1439 70.8221 30.1456 70.8489 30.1538C71.3382 30.3015 72.23 30.5445 72.3135 30.6036C72.4888 30.7268 72.6091 30.8992 72.7811 31.0486C73.212 31.4246 73.7297 31.6084 74.2474 31.5641C74.4511 31.5477 74.7217 31.5165 74.685 31.3638C74.6699 31.2981 74.6081 31.239 74.533 31.1914C74.3276 31.0601 73.8165 30.9862 73.5543 30.8335C73.2136 30.6348 73.2036 30.4099 73.0533 30.0339C72.9347 29.7351 72.6826 29.4576 72.4321 29.2688C72.0947 29.016 71.6338 28.8075 71.3365 28.5514C71.2296 28.4594 70.8054 28.0293 70.9491 27.9209C70.9758 27.9012 71.0275 27.9078 71.081 27.9209C71.3682 27.9899 71.9444 28.356 72.4087 28.5087C72.7544 28.622 73.1535 28.6679 73.3573 28.7812C73.6328 28.9355 73.9284 29.2721 74.1305 29.3542C74.2057 29.3854 74.7801 29.5282 74.9555 29.4117C75.0624 29.3411 74.9522 29.2114 74.8403 29.1391C74.6733 29.0324 74.4361 28.9996 74.2841 28.8961C74.2357 28.8633 74.1956 28.8223 74.1606 28.7763C74.0787 28.6712 74.0186 28.5382 73.9268 28.4299C73.7681 28.246 73.3122 28.0424 73.1535 27.8569C73.0216 27.7025 72.9698 27.494 72.8479 27.3233C72.6525 27.0524 72.1198 26.7256 71.8125 26.6009C71.4 26.4334 70.7553 26.2528 70.7553 26.2528C70.7553 26.2528 70.7603 26.1806 70.7754 26.1329C70.8138 26.0197 71.0476 25.995 71.1545 25.9983C71.4551 26.0065 71.7039 26.2118 72.0145 26.3858C72.2116 26.4958 72.4972 26.6058 72.6859 26.6436C72.8646 26.6797 73.0366 26.6862 73.2253 26.7289C74.0019 26.9062 74.3025 27.2527 74.7935 26.9719C74.9121 26.9046 74.9421 26.7979 74.8353 26.7421C74.7434 26.6945 74.5731 26.7076 74.4211 26.6698C74.2474 26.6271 73.9518 26.3825 73.7347 26.2544C73.4875 26.1083 73.1068 26.0788 72.7477 25.8965C72.6525 25.8473 71.8392 25.0543 71.8225 24.9935C71.8058 24.9344 71.8492 24.8835 71.9244 24.9081C72.0647 24.9525 72.2818 25.1708 72.4788 25.2956C72.7928 25.4926 73.3289 25.5402 73.733 25.468C74.0453 25.4122 74.1472 25.3482 74.3459 25.3531C74.4428 25.3564 74.8002 25.4893 74.8803 25.5534C74.8954 25.5649 75.3647 26.1592 75.4882 26.0262C75.4983 26.0164 75.5066 26.0016 75.5133 25.9983C75.5183 25.995 75.5233 25.9983 75.5283 25.9983C75.5534 25.9967 75.5383 25.8752 75.5133 25.798C75.4582 25.6322 75.029 25.2743 74.8803 25.1807C74.1021 24.6931 73.9034 24.7965 72.9915 24.634C72.5874 24.5617 72.5523 24.3696 72.1849 23.9493C72.053 23.7983 71.911 23.6768 71.7574 23.5881C71.435 23.4026 70.6969 23.2089 70.8155 22.9429C70.8505 22.8624 70.8923 22.8805 71.0309 22.8838C71.061 22.8838 71.0676 22.8854 71.0944 22.8953C71.7958 23.112 72.584 23.4354 73.1201 23.4453C73.7263 23.4568 74.1054 23.3008 74.4779 23.4601C74.6933 23.552 74.9455 23.7507 75.1776 23.8327C75.3597 23.8968 75.682 23.9608 75.6452 23.8048C75.6068 23.6423 75.2762 23.4995 75.1125 23.3895C74.9221 23.2614 74.7618 23.0594 74.5881 22.9297C74.3927 22.7853 73.9384 22.6178 73.6746 22.585C73.4792 22.5603 73.3255 22.5964 73.1485 22.557C72.9798 22.5176 72.3001 22.0399 71.9377 21.8264C71.8308 21.764 71.734 21.7197 71.5737 21.6688C71.253 21.567 70.6785 21.439 70.6785 21.439C70.6785 21.439 70.8322 21.3339 70.9758 21.2534C71.2096 21.1221 72.1615 20.8512 72.3903 20.8955C72.6208 20.9382 72.8245 21.1254 72.9882 21.0679C73.1719 21.0022 73.1502 20.8922 73.0466 20.7592C72.8396 20.4949 72.5156 20.3209 72.2884 20.293C71.8592 20.2404 70.4046 20.3455 70.2894 20.293C70.2677 20.2831 70.2476 20.2716 70.2259 20.2634C70.1658 20.2404 70.0957 20.2421 70.0272 20.2207C69.9604 20.201 69.598 19.8201 69.3625 19.5903C69.087 19.3194 68.7329 19.1683 68.4206 19.1306C68.2068 19.1043 67.9263 19.1092 67.6808 19.1026C67.6507 19.1026 67.6457 19.0994 67.6257 19.078C67.3701 18.8071 67.1029 18.4886 66.8541 18.2702C66.6153 18.0601 66.3948 17.9435 66.0508 17.625C65.8521 17.4428 65.6133 17.1932 65.6133 17.1932C65.6133 17.1932 65.3661 17.8975 65.2993 18.1996C65.2792 18.2899 65.2759 18.3458 65.2993 18.4147C65.4195 18.7628 65.6049 18.8219 65.3811 19.0025C65.2024 19.147 65.0271 19.1355 64.7632 19.0846C64.4275 19.0189 63.7662 18.6676 63.3888 18.5871C63.2184 18.551 62.9846 18.5411 62.7758 18.5592C62.4051 18.5904 61.7955 18.7053 61.7955 18.7053C61.7955 18.7053 61.8824 18.7923 61.9726 18.8465C62.1279 18.9401 62.4452 18.9237 62.6005 19.0041C62.6706 19.0403 62.6823 19.078 62.6239 19.1191C62.4335 19.252 61.8941 19.124 61.7104 19.1338C61.6068 19.1388 61.0858 19.2717 60.9805 19.3916C60.9555 19.4195 60.9522 19.4507 60.9872 19.4803C60.9989 19.4901 61.0039 19.4918 61.034 19.4885C61.2979 19.4688 61.6586 19.4129 61.8273 19.4343C62.178 19.4753 62.7909 19.7561 63.023 19.7643C63.1399 19.7692 63.3136 19.7528 63.3153 19.83C63.3153 19.8497 63.2986 19.8727 63.2719 19.8956C63.2084 19.9515 63.0915 20.0171 63.1249 20.0648C63.1316 20.0746 63.1483 20.0779 63.1683 20.0795C63.3704 20.0959 63.5808 20.0171 63.6209 20.1419C63.6276 20.1665 63.6359 20.1994 63.6359 20.1994C63.6359 20.1994 63.0097 20.4325 62.5855 20.6377C62.0978 20.8742 61.8774 21.0745 61.55 21.2682C61.3162 21.4078 59.7931 22.0875 59.2454 22.2008C58.4855 22.3567 58.0964 22.2976 57.6989 22.6802C57.4016 22.9659 56.914 23.8147 56.8672 24.2514C56.8455 24.4566 56.9056 24.9541 56.9992 25.1068C57.0609 25.207 57.1361 25.2267 57.2613 25.2267C57.4317 25.2267 58.1732 25.0937 58.3703 25.0264C58.6458 24.9311 59.0283 24.7275 59.1435 24.9344C59.252 25.1298 58.731 25.2858 58.5306 25.3268C58.2066 25.3958 57.7156 25.4352 57.7574 25.6847C57.7924 25.8965 58.1632 26.0131 58.3552 26.0295C58.4955 26.041 58.6425 26.0426 58.7928 26.0147C59.1385 25.954 59.581 25.711 59.9301 25.6273C60.0787 25.5928 60.3392 25.5862 60.528 25.6125C61.221 25.711 62.6322 26.11 62.9796 26.128C63.3186 26.1461 63.6827 26.1018 64.0351 26.087C64.0651 26.087 64.0701 26.087 64.0918 26.1067C64.4659 26.4465 64.2438 26.8242 64.0301 27.3758C63.8731 27.7813 63.1449 29.3115 62.9796 29.5841C62.8326 29.8271 62.6823 30.0471 62.512 30.2818C62.3032 30.5708 61.4749 31.5231 61.3095 31.6643C61.0273 31.9056 60.8369 32.0222 60.5714 32.3588C60.0938 32.9662 59.9468 33.4407 59.3305 33.8019C59.0466 33.9677 58.6341 34.0745 58.3235 34.2042C58.1214 34.2895 57.9026 34.4192 57.6288 34.6196C57.2296 34.9118 56.6301 35.3879 56.6301 35.3879C56.6301 35.3879 53.9129 33.6854 53.7927 33.5425C53.7125 33.4473 53.6574 33.3586 53.5806 33.2634C53.1079 32.6691 52.4349 32.2898 51.6984 32.1814C50.5962 32.0173 50.0367 33.0385 49.4656 34.0104C49.0514 34.7164 48.5003 35.603 48.2398 36.112C48.0594 36.4633 47.9041 36.8163 47.7137 37.1726C47.3145 37.9213 46.7584 38.6847 46.371 39.3661C46.2791 39.527 46.1973 39.6846 46.1522 39.8537C46.072 40.1525 46.1104 40.4891 46.0203 40.801C45.9334 41.1064 45.7113 41.4036 45.5977 41.6761C45.5293 41.8403 45.4925 42.0324 45.4558 42.3246C45.414 42.6612 45.3639 43.1538 45.3639 43.1538L45.3706 43.157ZM63.7261 18.1455C63.7144 18.1832 63.7411 18.2472 63.7695 18.2981C63.8831 18.4984 64.4258 18.7891 64.7181 18.835C64.9135 18.8662 65.0087 18.8317 64.9953 18.6199C64.9903 18.5296 64.9519 18.4558 64.9085 18.377C64.7331 18.0568 64.1904 17.2441 64.1336 17.2145C64.0852 17.1899 64.0518 17.6053 63.9165 17.8253C63.848 17.9353 63.7545 18.0584 63.7261 18.1487V18.1455Z" fill="#EAEBF0"/>
<path fill-rule="evenodd" clip-rule="evenodd" d="M68.7345 20.1666C68.7679 20.2766 68.5741 20.2503 68.5457 20.2454C68.4255 20.2257 67.8894 20.0992 68.0046 19.9006C68.1082 19.7216 68.4105 19.7906 68.5224 19.8809C68.5958 19.94 68.7027 20.0631 68.7345 20.1682V20.1666Z" fill="white"/>
<path fill-rule="evenodd" clip-rule="evenodd" d="M69.3157 21.4062C69.3191 21.4275 69.284 21.4554 69.254 21.4702C69.1254 21.5359 68.631 21.3389 68.5743 21.2321C68.5074 21.1074 68.6193 21.0318 68.7646 21.0105C68.9567 20.9826 69.0803 21.063 69.2172 21.2321C69.2606 21.2863 69.3091 21.3553 69.3174 21.4045L69.3157 21.4062Z" fill="white"/>
<path fill-rule="evenodd" clip-rule="evenodd" d="M65.189 21.4997C65.1941 21.5178 65.1774 21.5523 65.1607 21.572C65.0772 21.6623 64.9769 21.4472 64.9068 21.3848C64.8367 21.3224 64.7431 21.2978 64.6446 21.2732C64.5411 21.2485 64.344 21.2075 64.3724 21.1057C64.3908 21.0433 64.5043 21.0236 64.5761 21.0252C64.8684 21.0334 65.1106 21.1796 65.189 21.4981V21.4997Z" fill="white"/>
<path fill-rule="evenodd" clip-rule="evenodd" d="M60.3209 22.5637C60.3042 22.5637 60.2875 22.5735 60.2724 22.562C60.249 22.544 60.229 22.4816 60.229 22.4816C60.229 22.4816 60.6782 22.319 61.0022 22.2041C61.3162 22.0925 61.7905 21.8708 61.9208 21.7739C62.0243 21.6984 62.4786 21.2896 62.5854 21.3668C62.7057 21.4521 62.4902 21.6968 62.3667 21.8314C61.8506 22.3945 61.3763 22.4257 60.3776 22.5587C60.3476 22.562 60.3426 22.5637 60.3209 22.5653V22.5637Z" fill="white"/>
<path fill-rule="evenodd" clip-rule="evenodd" d="M63.8179 22.0875V22.1023L63.6676 22.0908C63.6375 22.0891 63.6325 22.0875 63.6175 22.0727C63.4622 21.9463 63.6626 21.6885 63.7962 21.5999C63.9298 21.5112 64.3156 21.4373 64.4475 21.4702C64.7414 21.5441 65.0871 22.0317 65.017 22.3305C64.9802 22.4914 64.8633 22.5883 64.7397 22.5456C64.6078 22.5012 64.4057 22.2468 64.2671 22.1302C64.207 22.0793 64.1302 22.0547 64.04 22.0579C63.9498 22.0629 63.8212 22.0859 63.8212 22.0859L63.8179 22.0875Z" fill="white"/>
<path fill-rule="evenodd" clip-rule="evenodd" d="M68.813 22.4471L70.0439 22.5587C70.0739 22.562 70.0789 22.5637 70.104 22.5801C70.1958 22.6441 70.2593 22.6786 70.2226 22.7196C70.1407 22.8099 69.7032 22.7656 69.6397 22.7771C69.4393 22.8132 68.7629 23.3304 68.6761 22.9495C68.6544 22.851 68.6844 22.6474 68.7346 22.562C68.7646 22.5111 68.813 22.4471 68.813 22.4471Z" fill="white"/>
<path fill-rule="evenodd" clip-rule="evenodd" d="M58.2432 23.795C58.2999 23.9115 58.2198 23.9854 58.1396 24.0232C58.0494 24.0675 57.9359 24.1184 57.8423 24.1956C57.6186 24.3811 57.4432 24.7013 57.3397 24.3959C57.2712 24.1956 57.4766 23.5832 57.7622 23.5208C57.9509 23.4797 58.143 23.5848 58.2432 23.7933V23.795Z" fill="white"/>
<path fill-rule="evenodd" clip-rule="evenodd" d="M70.0339 24.153C70.0523 24.1924 69.9989 24.2334 69.9805 24.2383C69.912 24.2597 69.5814 24.1874 69.5396 24.1743C69.4494 24.1448 69.2056 24.0495 69.2607 23.9461C69.3275 23.8197 69.5947 23.7967 69.6832 23.8213C69.8302 23.864 69.9588 23.9888 70.0339 24.1513V24.153Z" fill="white"/>
<path fill-rule="evenodd" clip-rule="evenodd" d="M65.1822 24.2071L64.4006 25.161C64.3823 25.184 64.3773 25.1873 64.3505 25.2004C64.2954 25.2267 64.2437 25.253 64.1819 25.2727C63.9948 25.3318 63.6257 25.3236 63.4888 25.2448C63.4187 25.2037 63.4537 25.1446 63.5305 25.0871C63.731 24.9377 64.0967 24.8491 64.4073 24.6422C64.7146 24.4386 64.9935 24.1152 65.1388 24.0692C65.2039 24.0479 65.2089 24.0741 65.2039 24.1513C65.2023 24.1809 65.2006 24.1858 65.1806 24.2088L65.1822 24.2071Z" fill="white"/>
<path fill-rule="evenodd" clip-rule="evenodd" d="M60.2575 24.5354C60.321 24.6602 60.1222 24.8277 60.0387 24.8556C59.9352 24.8901 59.8149 24.7965 59.835 24.6684C59.855 24.5322 60.032 24.4057 60.1556 24.4534C60.199 24.4698 60.2425 24.5059 60.2575 24.5338V24.5354Z" fill="white"/>
<path fill-rule="evenodd" clip-rule="evenodd" d="M66.2978 24.8852C66.3312 25.0855 66.1709 25.3137 66.0356 25.3876C65.9471 25.4352 65.4578 25.6125 65.3493 25.56C65.3309 25.5501 65.3292 25.5337 65.3342 25.5107C65.3476 25.4615 66.2444 24.8064 66.2678 24.8277C66.2845 24.8441 66.2945 24.8688 66.2962 24.8852H66.2978Z" fill="white"/>
<path fill-rule="evenodd" clip-rule="evenodd" d="M70.1206 25.2004C70.1557 25.3284 70.0488 25.3383 69.9453 25.3153C69.7699 25.2759 69.2038 25.1511 69.2889 24.9705C69.3775 24.785 69.7232 24.8014 69.8501 24.8983C69.9119 24.9443 69.9787 25.0132 70.0471 25.092C70.0789 25.1281 70.1106 25.1692 70.1206 25.2004Z" fill="white"/>
<path fill-rule="evenodd" clip-rule="evenodd" d="M66.6035 25.4434C66.677 25.5928 66.4666 25.8308 66.378 25.9031C66.3463 25.9293 66.3179 25.9458 66.2812 25.9605C66.1977 25.995 65.3577 26.018 65.2458 25.9884C65.1773 25.972 65.1589 25.9458 65.2174 25.8883C65.2942 25.8111 65.8353 25.7487 66.1225 25.6338C66.2662 25.5763 66.3647 25.4893 66.5317 25.4434C66.5618 25.4352 66.5952 25.4286 66.6018 25.4434H66.6035Z" fill="white"/>
<path fill-rule="evenodd" clip-rule="evenodd" d="M70.2527 26.3185H70.2377V26.3333C70.2377 26.3333 70.1608 26.3333 70.0924 26.3333C69.902 26.33 69.2206 26.1757 69.3626 25.9261C69.4594 25.757 69.7951 25.7587 69.9521 25.8637C70.0356 25.9196 70.1258 26.0345 70.1942 26.1084C70.2226 26.1396 70.246 26.1625 70.2527 26.2167C70.2577 26.2578 70.2527 26.3169 70.2527 26.3169V26.3185Z" fill="white"/>
<path fill-rule="evenodd" clip-rule="evenodd" d="M70.2376 27.4514C70.271 27.5663 70.1106 27.5564 70.0488 27.5433C69.9403 27.5203 69.1921 27.3791 69.3324 27.1411C69.4526 26.9375 69.795 26.9736 69.9386 27.0787C70.0756 27.1788 70.1941 27.2987 70.2376 27.4514Z" fill="white"/>
<path fill-rule="evenodd" clip-rule="evenodd" d="M70.2959 28.6844C70.3243 28.7353 70.2575 28.7944 70.2425 28.7993C70.0872 28.8518 69.3824 28.5629 69.354 28.5465C69.2137 28.4627 69.1653 28.3774 69.3089 28.2542C69.4559 28.1278 69.7565 28.1426 69.9152 28.2263C70.0621 28.3018 70.1857 28.489 70.2943 28.686L70.2959 28.6844Z" fill="white"/>
<path fill-rule="evenodd" clip-rule="evenodd" d="M66.1812 28.5563C66.1895 28.6269 66.1878 28.7369 66.1812 28.8436C66.1711 28.9963 65.924 29.8698 65.8455 30.029C65.5916 30.5429 65.0823 31.2653 64.6347 31.7776C64.2823 32.1815 63.9349 32.5115 63.8765 32.3867C63.8598 32.3522 64.6096 31.1717 65.0288 30.5216C65.1908 30.272 65.2994 30.0586 65.3795 29.8336C65.6317 29.1129 65.6601 28.6253 65.934 28.2493C65.9841 28.1803 66.0726 28.1491 66.1127 28.223C66.1461 28.2838 66.1728 28.4726 66.1812 28.5579V28.5563Z" fill="white"/>
<path fill-rule="evenodd" clip-rule="evenodd" d="M70.0773 29.7893C70.1007 29.8386 70.0389 29.8862 70.0238 29.8895C69.9119 29.9174 69.4443 29.7712 69.3909 29.7466C69.1788 29.6432 69.0669 29.5299 69.2506 29.4018C69.471 29.2491 69.795 29.3641 69.9453 29.566C69.9988 29.6383 70.0489 29.7318 70.0773 29.7893Z" fill="white"/>
<path fill-rule="evenodd" clip-rule="evenodd" d="M69.887 30.7794C69.9387 30.9091 69.7417 30.8877 69.6832 30.8795C69.5196 30.8565 69.0653 30.7268 69.1438 30.5446C69.2106 30.3886 69.4962 30.3952 69.6248 30.4641C69.6832 30.4953 69.8436 30.6694 69.887 30.7794Z" fill="white"/>
<path fill-rule="evenodd" clip-rule="evenodd" d="M69.5812 31.8252C69.4092 31.8071 69.1821 31.771 69.0702 31.6462C69.0051 31.5723 69.0485 31.4886 69.1871 31.4525C69.2756 31.4295 69.3808 31.4607 69.4593 31.5099C69.5395 31.5608 69.6363 31.684 69.6397 31.7398C69.6397 31.7595 69.6364 31.7792 69.6146 31.7874C69.6013 31.7923 69.5796 31.7972 69.5812 31.8104C69.5812 31.8169 69.5846 31.8252 69.5812 31.8252Z" fill="white"/>
<path fill-rule="evenodd" clip-rule="evenodd" d="M69.3758 32.6428C69.3909 32.674 69.3591 32.7052 69.3408 32.715C69.2172 32.7725 68.9116 32.6346 68.8498 32.5377C68.8164 32.4852 68.8347 32.4343 68.9015 32.3998C69.0752 32.3144 69.2923 32.4638 69.3742 32.6428H69.3758Z" fill="white"/>
<path fill-rule="evenodd" clip-rule="evenodd" d="M51.9556 33.0155C51.9556 33.0155 51.9506 33.0746 51.9405 33.1107C51.9272 33.1616 51.9055 33.1665 51.8721 33.1731C51.5798 33.2388 51.3861 33.2683 51.2358 33.1764C51.1506 33.1239 51.2057 33.0467 51.3193 32.9728C51.5013 32.853 51.7635 32.7807 51.9121 32.9662C51.9205 32.9761 51.9272 32.9859 51.9322 32.9974C51.9389 33.0122 51.9405 33.0155 51.9439 33.0155H51.9539H51.9556Z" fill="white"/>
<path fill-rule="evenodd" clip-rule="evenodd" d="M69.1435 33.3882C69.1535 33.4079 69.1469 33.4506 69.1285 33.4736C69.075 33.5474 68.7794 33.4177 68.711 33.3734C68.6458 33.3307 68.6074 33.2815 68.6325 33.2256C68.6959 33.0812 68.9014 33.1238 68.9899 33.201C69.0467 33.2503 69.1151 33.334 69.1435 33.3882Z" fill="white"/>
<path fill-rule="evenodd" clip-rule="evenodd" d="M68.7779 34.1401C68.8313 34.2107 68.8447 34.2731 68.7679 34.2928C68.7061 34.3076 68.4656 34.237 68.4272 34.168C68.3787 34.0794 68.4956 34.0301 68.5725 34.0334C68.6459 34.0367 68.7244 34.0712 68.7762 34.1401H68.7779Z" fill="white"/>
<path fill-rule="evenodd" clip-rule="evenodd" d="M63.2335 34.966C63.2652 35.0119 63.2067 35.0628 63.1984 35.0661C63.0815 35.1219 62.9779 35.0136 62.7525 34.8937C62.4519 34.7345 61.692 34.6622 61.4682 34.6507C61.2945 34.6409 60.5547 34.7345 60.4462 34.7804C60.2407 34.8675 59.9184 35.053 59.9785 34.7525C60.0504 34.3979 61.1359 34.2731 61.3797 34.2649C61.9609 34.2468 62.5705 34.3733 63.0665 34.7952C63.1333 34.851 63.1984 34.9183 63.2335 34.9676V34.966Z" fill="white"/>
<path fill-rule="evenodd" clip-rule="evenodd" d="M49.9264 34.6803C49.9297 34.7082 49.9314 34.7509 49.9264 34.7952C49.9197 34.8642 49.2149 35.956 49.0513 36.1498C48.9394 36.2827 48.764 36.4781 48.6872 36.3517C48.592 36.1957 48.8592 35.7262 48.9494 35.5686C49.0412 35.4077 49.4654 34.5605 49.7377 34.5358C49.8512 34.526 49.9097 34.5473 49.928 34.6787L49.9264 34.6803Z" fill="white"/>
<path fill-rule="evenodd" clip-rule="evenodd" d="M68.4572 34.961C68.4789 35.0021 68.4405 35.0431 68.4188 35.0514C68.352 35.076 68.1649 35.0152 68.1366 34.9512C68.1215 34.9167 68.1432 34.8707 68.19 34.851C68.2568 34.8215 68.4088 34.8707 68.4572 34.961Z" fill="white"/>
<path fill-rule="evenodd" clip-rule="evenodd" d="M53.3783 36.644C53.1044 36.3911 52.7353 35.9725 52.6986 35.6835C52.6802 35.5374 52.7237 35.4848 52.8506 35.5259C53.056 35.5932 53.709 36.3599 53.5887 36.5964C53.5821 36.6111 53.4601 36.7211 53.3783 36.6456V36.644Z" fill="white"/>
<path fill-rule="evenodd" clip-rule="evenodd" d="M68.1216 35.7409C68.145 35.7803 68.0982 35.8214 68.0832 35.8263C68.0131 35.8526 67.8444 35.8 67.816 35.7163C67.7943 35.6523 67.8778 35.6014 67.9479 35.6112C68.0081 35.6194 68.0849 35.6769 68.1233 35.7409H68.1216Z" fill="white"/>
<path fill-rule="evenodd" clip-rule="evenodd" d="M56.7802 36.6997L55.4508 38.5681C55.4341 38.5911 55.4308 38.5944 55.4157 38.596C55.2153 38.619 55.5259 38.0493 55.6161 37.8769C55.8833 37.3663 56.0971 36.8836 56.4829 36.6143C56.5881 36.5421 56.8019 36.4337 56.8119 36.5519C56.8136 36.5766 56.8085 36.611 56.8035 36.639C56.7985 36.6669 56.7952 36.6734 56.7785 36.6981L56.7802 36.6997Z" fill="white"/>
<path fill-rule="evenodd" clip-rule="evenodd" d="M49.898 38.3942C49.9047 38.4106 49.903 38.4385 49.898 38.4664C49.883 38.5567 49.6659 38.931 49.539 38.9688C49.4388 38.9984 49.4237 38.8884 49.4471 38.7816C49.4822 38.6158 49.5807 38.3925 49.7394 38.3219C49.8112 38.2907 49.8696 38.3137 49.8997 38.3942H49.898Z" fill="white"/>
<path fill-rule="evenodd" clip-rule="evenodd" d="M46.8769 39.3693C46.9052 39.5384 46.6547 40.054 46.5495 40.1147C46.4861 40.1508 46.4209 40.1361 46.3942 40.077C46.294 39.8488 46.5679 39.4153 46.7533 39.3119C46.7566 39.3119 46.8618 39.2872 46.8752 39.3693H46.8769Z" fill="white"/>
<path fill-rule="evenodd" clip-rule="evenodd" d="M69.5477 44.8974C69.5795 44.9352 69.4024 44.9007 69.2588 44.8482C68.9081 44.7185 67.7691 43.6726 67.6539 43.5511C67.0527 42.919 66.3813 41.5793 66.2394 40.632C66.1826 40.2543 66.1709 39.8669 66.4732 39.9293C66.5316 39.9408 66.5634 39.9736 66.5901 40.0212C66.6803 40.1805 66.7771 41.0194 66.9258 41.5497C67.0727 42.0751 67.5871 42.9059 67.9478 43.3213C68.4021 43.8434 69.1837 44.4738 69.5494 44.8991L69.5477 44.8974Z" fill="white"/>
<path fill-rule="evenodd" clip-rule="evenodd" d="M54.0265 41.3478C54.0398 41.4167 53.9797 41.4693 53.963 41.4775C53.9246 41.4939 53.8795 41.4972 53.8227 41.4923C53.7392 41.484 51.8437 40.4957 51.8237 40.4497C51.8053 40.4054 51.8153 40.3397 51.8872 40.3019C52.1009 40.187 52.9643 40.6287 53.1798 40.7469C53.2048 40.76 53.8645 41.1163 53.9831 41.269C54.0031 41.2952 54.0231 41.3264 54.0265 41.3494V41.3478Z" fill="white"/>
<path fill-rule="evenodd" clip-rule="evenodd" d="M49.5825 41.8009C49.5858 41.8666 49.5758 41.9634 49.5758 42.0652C49.5774 42.3985 49.9064 43.6726 49.868 43.7629C49.848 43.8105 49.7929 43.845 49.7127 43.8006C49.5958 43.7366 49.4054 43.3508 49.372 43.2555C49.2969 43.0503 49.1566 41.9585 49.2985 41.6498C49.3303 41.5792 49.4004 41.5431 49.4823 41.5924C49.519 41.6137 49.5774 41.7106 49.5825 41.8009Z" fill="white"/>
<path fill-rule="evenodd" clip-rule="evenodd" d="M46.1188 42.2803C46.1555 42.4478 46.057 42.7893 45.9384 42.8681C45.8532 42.9256 45.7664 42.8057 45.7397 42.6957C45.7113 42.5759 45.7664 42.1129 45.9584 42.1227C46.0303 42.126 46.1004 42.195 46.1188 42.2803Z" fill="white"/>
<path fill-rule="evenodd" clip-rule="evenodd" d="M63.6041 49.5668C63.6208 49.5979 63.524 49.5881 63.4371 49.5668C63.3386 49.5421 62.9445 49.2975 62.8159 49.1793C62.3499 48.754 61.6235 48.2418 61.089 47.7804C60.8302 47.5572 60.6164 47.3454 60.3893 47.1073C60.3008 47.0137 58.5188 45.0649 58.3468 44.4163C58.3134 44.2899 58.3268 44.1931 58.4487 44.216C58.5021 44.2259 58.5522 44.262 58.6023 44.3014C58.8261 44.4804 60.3342 46.4013 61.1258 47.2419C61.5683 47.7115 62.4418 48.3912 63.1916 49.0972C63.3603 49.2564 63.5423 49.4453 63.6058 49.5651L63.6041 49.5668Z" fill="white"/>
<path fill-rule="evenodd" clip-rule="evenodd" d="M81.8811 45.5131C81.8811 45.495 81.9111 45.4753 81.9345 45.4638C82.1917 45.3325 82.2418 46.6033 82.2451 46.8266C82.2652 48.1203 82.1449 49.2483 81.34 50.1611C81.1245 50.4057 80.2878 51.2381 79.9689 51.358C79.9271 51.3744 79.8887 51.3826 79.862 51.3564C79.852 51.3465 79.8453 51.3317 79.8369 51.3301C79.8319 51.3285 79.8252 51.3301 79.8219 51.3301C79.8102 51.3285 79.8219 51.2858 79.8369 51.2447C79.887 51.1084 80.7404 50.2892 81.1062 49.8327C81.6339 49.1744 81.9011 47.9693 81.9228 47.173C81.9395 46.6115 81.8761 45.9301 81.8794 45.5147L81.8811 45.5131Z" fill="white"/>
<path fill-rule="evenodd" clip-rule="evenodd" d="M69.5077 48.0464C69.5161 48.0694 69.4994 48.1072 69.4793 48.1416C69.4075 48.2599 68.7645 48.5997 68.6627 48.7409C68.4572 49.0249 68.5808 49.6784 68.2535 49.5388C67.836 49.3599 68.1733 48.5751 68.5357 48.2631C68.7245 48.1006 69.2522 47.8658 69.4192 47.9627C69.4576 47.984 69.4977 48.0201 69.506 48.0481L69.5077 48.0464Z" fill="white"/>
<path fill-rule="evenodd" clip-rule="evenodd" d="M52.1291 49.4223C52.1291 49.4223 52.1191 49.4896 52.1007 49.5306C52.0623 49.6127 51.922 49.6258 51.8669 49.6078C51.7383 49.5667 51.5463 49.2614 51.5029 49.1349C51.4828 49.0791 51.4728 49.0167 51.5029 48.9872C51.5129 48.9773 51.5279 48.9708 51.5312 48.9625C51.5329 48.9576 51.5312 48.9527 51.5312 48.9478C51.5346 48.9297 51.5964 48.933 51.6482 48.9478C51.7651 48.9806 52.089 49.2187 52.1124 49.3943C52.1158 49.419 52.1158 49.4223 52.1208 49.4223H52.1308H52.1291Z" fill="white"/>
<path fill-rule="evenodd" clip-rule="evenodd" d="M75.4748 52.8931C75.5249 53.4448 75.3279 54.0933 75.0807 54.4069C74.9788 54.5349 74.8352 54.6055 74.76 54.4775C74.73 54.4266 74.7316 54.3396 74.745 54.2558C74.7817 54.0457 74.902 53.8634 74.9354 53.6385C74.9989 53.2018 74.7316 52.6419 75.0807 52.4761C75.1959 52.4219 75.3579 52.5401 75.4314 52.7142C75.4548 52.7716 75.4715 52.8471 75.4748 52.8915V52.8931Z" fill="white"/>
<path fill-rule="evenodd" clip-rule="evenodd" d="M67.9029 55.6317C67.8478 55.8845 67.6557 56.3032 67.5973 56.6217C67.5706 56.7695 67.5722 56.8959 67.5823 57.0371C67.6006 57.2784 67.6557 57.6429 67.5388 57.725C67.4136 57.8137 67.3117 57.6019 67.2616 57.3802C67.1347 56.8138 67.133 56.2802 67.3785 55.8812C67.4603 55.7482 67.7008 55.4511 67.8361 55.5299C67.8712 55.5496 67.9113 55.6005 67.9046 55.63L67.9029 55.6317Z" fill="white"/>
<path fill-rule="evenodd" clip-rule="evenodd" d="M65.7585 60.6278V60.6376C65.7585 60.6376 65.6884 60.6376 65.6483 60.6228C65.5247 60.5818 65.6567 60.4357 65.7235 60.3798C65.812 60.3027 66.0224 60.2042 66.0658 60.3946C66.0692 60.4077 66.0692 60.4225 66.0675 60.4357C66.0658 60.4537 66.0625 60.4586 66.0391 60.4767C65.9289 60.5588 65.9122 60.5703 65.7903 60.613C65.7619 60.6228 65.7585 60.6245 65.7585 60.6278Z" fill="white"/>
<path fill-rule="evenodd" clip-rule="evenodd" d="M59.5126 60.8954C59.5343 60.9298 59.4959 60.9709 59.4775 60.9807C59.3957 61.0251 59.2086 61.0251 59.1485 60.966C59.055 60.8757 59.1635 60.8412 59.2504 60.8231C59.3773 60.7952 59.4541 60.7969 59.5126 60.8954Z" fill="white"/>
<path fill-rule="evenodd" clip-rule="evenodd" d="M63.7128 61.053C63.7963 61.1203 63.7512 61.1843 63.6944 61.2254C63.5157 61.3518 62.6139 61.3469 62.4169 61.3551C61.8557 61.3748 61.3681 61.3863 60.8854 61.1548C60.8203 61.1236 60.6817 61.0054 60.7401 60.9069C60.7485 60.8937 60.7618 60.8806 60.7735 60.8708C60.7902 60.856 60.7969 60.8543 60.8253 60.8576C61.4582 60.9249 62.3033 61.0431 62.7241 61.0546C63.0415 61.0645 63.3504 61.0481 63.6627 61.0415C63.6928 61.0415 63.6978 61.0415 63.7128 61.0563V61.053Z" fill="white"/>
<path fill-rule="evenodd" clip-rule="evenodd" d="M55.4711 61.1105C55.5295 61.2369 55.2924 61.3994 55.2222 61.4257C55.0853 61.4782 55.0085 61.4454 54.9083 61.3682C54.7763 61.2664 54.8097 61.1696 54.96 61.0957C55.0486 61.053 55.3525 61.012 55.3976 61.0382C55.431 61.0579 55.4594 61.0875 55.4711 61.1105Z" fill="white"/>
<path fill-rule="evenodd" clip-rule="evenodd" d="M70.8204 64.5238C70.8204 64.5238 70.8254 64.5616 70.8204 64.596C70.812 64.6535 70.7168 64.7651 70.66 64.7832C70.64 64.7898 70.62 64.7931 70.6166 64.8111C70.6166 64.8177 70.6166 64.8259 70.6166 64.8259H70.5465C70.5164 64.8259 70.5114 64.8259 70.4997 64.816C70.4196 64.7602 70.4379 64.6075 70.4563 64.5681C70.5081 64.4548 70.6985 64.3695 70.782 64.4762C70.7886 64.486 70.797 64.4959 70.8003 64.5074C70.8053 64.5222 70.807 64.5238 70.812 64.5238H70.822H70.8204Z" fill="white"/>
<path fill-rule="evenodd" clip-rule="evenodd" d="M68.9966 65.3135C68.711 65.6633 67.1245 67.2936 66.7988 67.3642C66.7588 67.3724 66.7053 67.3724 66.692 67.3264C66.6669 67.246 66.8205 67.0358 66.8656 66.9784C66.9742 66.8355 68.5758 65.3546 68.6676 65.3135C68.7294 65.2856 68.8647 65.2167 68.9248 65.2413C68.9599 65.2561 69.0133 65.2938 68.9983 65.3135H68.9966Z" fill="white"/>
<path fill-rule="evenodd" clip-rule="evenodd" d="M65.3058 68.0899V68.08C65.3058 68.08 65.3676 68.0718 65.4077 68.08C65.4829 68.0948 65.5029 68.2146 65.4812 68.2721C65.4411 68.3772 65.1806 68.5348 65.0871 68.5545C64.9768 68.5775 64.9368 68.5134 64.9702 68.3969C65.0086 68.2606 65.1288 68.2113 65.2791 68.1128C65.3042 68.0964 65.3058 68.0948 65.3058 68.0899Z" fill="white"/>
<path fill-rule="evenodd" clip-rule="evenodd" d="M62.6673 71.1798L62.4786 71.1896C62.4485 71.1913 62.4435 71.1896 62.4235 71.1765C62.4001 71.1601 62.375 71.1338 62.365 71.1092C62.3583 71.0944 62.3583 71.0927 62.3533 71.0927H62.3433C62.3433 71.0927 62.335 70.9992 62.3433 70.9351C62.3583 70.8136 62.6205 70.5214 62.6706 70.4754C62.8427 70.3178 63.1216 70.2488 63.175 70.5329C63.2134 70.7332 63.0598 70.6889 62.861 70.8054C62.836 70.8202 62.8193 70.835 62.8093 70.858C62.7859 70.9138 62.8093 71.0123 62.7809 71.078C62.7675 71.1075 62.7425 71.1305 62.7207 71.1535C62.7007 71.1748 62.6957 71.1781 62.6656 71.1798H62.6673Z" fill="white"/>
<path fill-rule="evenodd" clip-rule="evenodd" d="M95.2248 20.2142C95.2399 18.5051 95.2616 16.7959 95.2883 15.0868L64.688 9.68353L34.208 15.1032V16.1244C34.2264 17.4149 34.2464 18.7776 34.2665 20.1617L35.5491 19.5969C54.6678 11.1842 74.5163 11.1563 93.6183 19.5132L95.2248 20.2159V20.2142Z" fill="#B7B8C2"/>
<path fill-rule="evenodd" clip-rule="evenodd" d="M11.4614 120.689V118.489H12.707C13.3269 118.489 14.5724 118.364 14.5724 116.897V103.676C14.5724 102.881 14.5093 100.985 12.9538 100.985H11.5246L13.1432 98.1688H108.912V100.985H20.8001C19.9908 100.985 18.9346 101.171 18.9346 102.762V106.926C19.1241 107.417 19.8702 107.598 20.2433 107.598C20.6164 107.598 21.9251 107.536 21.9251 105.516H23.7905V112.31H21.9251C21.9251 111.7 21.2363 110.673 20.3065 110.594C19.5603 110.532 18.9346 110.781 18.9346 111.757V116.897C18.9346 117.45 19.6177 118.489 21.2363 118.489H22.3556V120.689H11.4614Z" fill="#B7B8C2"/>
<path fill-rule="evenodd" clip-rule="evenodd" d="M66.7299 104.167C66.7299 104.658 67.3498 105.149 67.7287 105.268C68.1649 104.963 70.4666 103.676 72.2746 103.676C74.0826 103.676 75.0125 104.596 75.0125 106.001V112.733H70.656V107.53C70.656 106.859 70.4666 106.368 69.8467 106.306C69.2268 106.244 67.6081 107.53 67.1719 108.14V117.445C67.1719 118.302 68.0444 118.912 68.7905 118.912V120.689H61.1968V118.855C61.943 118.855 62.7523 118.613 62.8154 117.507V107.164C62.8154 106.859 62.316 106.001 61.1968 106.001V104.167H66.7357H66.7299Z" fill="#B7B8C2"/>
<path fill-rule="evenodd" clip-rule="evenodd" d="M118.847 104.167H111.254V106.001C112.373 106.001 112.872 106.859 112.872 107.164V117.507C112.809 118.607 112 118.856 111.254 118.856V120.689H118.847V118.912C118.101 118.912 117.229 118.303 117.229 117.445V107.288C117.229 106.554 118.038 106.001 118.847 106.001V104.167Z" fill="#B7B8C2"/>
<path fill-rule="evenodd" clip-rule="evenodd" d="M49.9238 104.167C49.9238 104.658 50.5437 105.149 50.9225 105.268C51.3587 104.963 53.6604 103.676 55.4684 103.676C57.2765 103.676 58.2063 104.596 58.2063 106.001V112.733H53.8498V107.53C53.8498 106.859 53.6604 106.368 53.0405 106.306C52.4206 106.244 50.802 107.53 50.3658 108.14V117.445C50.3658 118.302 51.2382 118.912 51.9844 118.912V120.689H44.3906V118.855C45.1368 118.855 45.9461 118.613 46.0092 117.507V107.164C46.0092 106.859 45.5099 106.001 44.3906 106.001V104.167H49.9295H49.9238Z" fill="#B7B8C2"/>
<path fill-rule="evenodd" clip-rule="evenodd" d="M100.423 104.167C100.423 104.658 101.042 105.149 101.421 105.268C101.858 104.963 104.159 103.676 105.967 103.676C107.775 103.676 108.705 104.596 108.705 106.001V112.733H104.349V107.53C104.349 106.859 104.159 106.368 103.539 106.306C102.919 106.244 101.301 107.53 100.865 108.14V117.445C100.865 118.302 101.737 118.912 102.483 118.912V120.689H94.8894V118.855C95.6356 118.855 96.4449 118.613 96.508 117.507V107.164C96.508 106.859 96.0087 106.001 94.8894 106.001V104.167H100.428H100.423Z" fill="#B7B8C2"/>
<path fill-rule="evenodd" clip-rule="evenodd" d="M41.0961 115.549H36.7396V117.202C36.7396 117.873 36.6133 119.284 34.5585 119.284C32.5036 119.284 31.8837 117.936 31.8837 116.959V113.472C31.8837 113.167 32.1305 112.739 32.5668 112.739H41.0961V108.269C41.0961 106.249 40.6599 105.64 39.7874 104.782C38.915 103.924 35.8672 103.682 34.4953 103.682C31.0113 103.682 29.8863 104.173 28.8933 104.968C27.8946 105.764 27.5215 107.417 27.5215 108.642V115.56C27.5215 117.394 27.8946 118.68 29.077 119.843C30.2594 121.005 33.8697 121.005 34.6159 121.005C35.3621 121.005 37.8531 121.067 39.6554 119.781C41.4635 118.494 41.0846 115.56 41.0846 115.56L41.0961 115.549ZM31.8837 107.959C31.8837 106.977 32.1937 105.51 34.3748 105.51C36.5559 105.51 36.7396 107.101 36.7396 107.959V110.16C36.7396 110.527 36.4297 110.893 35.9934 110.893H32.6299C32.2568 110.893 31.8837 110.589 31.8837 110.222V107.959Z" fill="#B7B8C2"/>
<path fill-rule="evenodd" clip-rule="evenodd" d="M91.0207 117.445V108.264C91.0207 106.859 90.9576 105.386 89.4653 104.348C87.9729 103.31 85.545 103.366 84.6094 103.366C83.6738 103.366 80.5628 103.366 79.1336 104.957C77.7044 106.549 77.9512 108.078 77.9512 108.693H82.0265C82.0265 108.693 82.3077 106.611 82.8645 106.063C83.427 105.51 84.9193 104.901 86.073 105.877C86.4978 106.238 86.6642 106.701 86.6642 107.226V109.855C86.6642 110.098 86.4174 110.465 86.1017 110.465C86.1017 110.465 80.4365 110.589 79.4436 111.322C78.4448 112.056 77.5781 112.547 77.5781 115.238C77.5781 117.93 78.2612 118.974 79.0705 119.521C79.8798 120.074 80.2529 120.684 83.9263 120.684H92.6394V118.906C91.8932 118.906 91.0207 118.297 91.0207 117.439V117.445ZM86.6642 118.483C86.6642 118.635 86.4174 118.85 86.228 118.85H84.0813C82.5545 118.85 82.1183 117.563 82.1183 116.768V114.409C82.1183 112.112 84.5462 112.174 85.5105 112.174C86.4748 112.174 86.6642 112.97 86.6642 113.489V118.477V118.483Z" fill="#B7B8C2"/>
<path fill-rule="evenodd" clip-rule="evenodd" d="M114.766 100.956C116.947 100.956 118.709 100.307 118.709 99.5005C118.709 98.6936 116.942 98.0447 114.766 98.0447C112.591 98.0447 110.823 98.6936 110.823 99.5005C110.823 100.307 112.591 100.956 114.766 100.956Z" fill="#B7B8C2"/>
</svg>
